<svg fill="currentColor" viewBox="0 0 1000 1000">

<g><path
			d="M525.2,757l454.3-462.5c13.9-14.2,13.9-37.2,0-51.4c-13.9-14.2-36.5-14.2-50.5,0L500,679.9L70.9,243c-13.9-14.2-36.5-14.2-50.5,0c-13.9,14.2-13.9,37.2,0,51.4L474.8,757C488.7,771.2,511.3,771.2,525.2,757L525.2,757L525.2,757z"
		/><path
			d="M525.2,757l454.3-462.5c13.9-14.2,13.9-37.2,0-51.4c-13.9-14.2-36.5-14.2-50.5,0L500,679.9L70.9,243c-13.9-14.2-36.5-14.2-50.5,0c-13.9,14.2-13.9,37.2,0,51.4L474.8,757C488.7,771.2,511.3,771.2,525.2,757L525.2,757L525.2,757z"
		/></g>
</svg>
