<svg viewBox="0 0 15 15" fill="currentColor" xmlns="http://www.w3.org/2000/svg">
<path
		d="M6.53464 0.192043L0.78375 4.30418C0.295178 4.65026 -1.0795e-07 5.21008 -8.16998e-08 5.81061C-1.54068e-08 7.32722 1.71 8.20258 2.94161 7.32722L7.125 4.3449L11.3084 7.32722C12.54 8.21276 14.25 7.32722 14.25 5.81061C14.25 5.21008 13.9548 4.64008 13.4663 4.29401L7.71536 0.181864C7.35911 -0.0624216 6.89089 -0.0624216 6.53464 0.192043Z"
	/>
<path
		d="M6.53464 7.31704L0.78375 11.419C0.295178 11.7753 -1.0795e-07 12.3351 -8.16998e-08 12.9356C-1.54068e-08 14.4522 1.71 15.3378 2.94161 14.4522L7.125 11.4699L11.3084 14.4522C12.54 15.3378 14.25 14.4522 14.25 12.9356C14.25 12.3351 13.9548 11.7651 13.4662 11.419L7.71536 7.30686C7.35911 7.06258 6.89089 7.06258 6.53464 7.31704Z"
	/>
</svg>
