<svg
	xmlns="http://www.w3.org/2000/svg"
	fill="currentColor"
	aria-labelledby="ApplePay"
	viewBox="0 0 52 22"
>
	<g>
		<path
			d="M10.0906 2.99023C10.6297 2.33887 11.0115 1.45166 11.0115 0.553223C11.0115 0.429688 11.0003 0.306152 10.9778 0.205078C10.1019 0.23877 9.0462 0.789062 8.41729 1.53027C7.92315 2.0918 7.4627 2.99023 7.4627 3.88867C7.4627 4.02344 7.48516 4.1582 7.49639 4.20312C7.55255 4.21436 7.64239 4.22559 7.73223 4.22559C8.51837 4.22559 9.50665 3.69775 10.0906 2.99023ZM10.7083 4.4165C9.39434 4.4165 8.32745 5.21387 7.64239 5.21387C6.91241 5.21387 5.95782 4.46143 4.81231 4.46143C2.64483 4.46143 0.443659 6.2583 0.443659 9.63867C0.443659 11.75 1.25225 13.9736 2.26299 15.4111C3.12774 16.624 3.88018 17.6235 4.96954 17.6235C6.04766 17.6235 6.51934 16.9048 7.85577 16.9048C9.21465 16.9048 9.51788 17.6011 10.7083 17.6011C11.8875 17.6011 12.6736 16.5229 13.4149 15.4561C14.2459 14.2319 14.594 13.0415 14.6053 12.9854C14.5379 12.9629 12.2806 12.042 12.2806 9.45898C12.2806 7.22412 14.055 6.22461 14.1561 6.146C12.9881 4.46143 11.2024 4.4165 10.7083 4.4165ZM16.1673 17.5H19.0647V12.1431H22.636C25.9265 12.1431 28.1502 9.96436 28.1502 6.72998V6.70752C28.1502 3.46191 25.9265 1.29443 22.636 1.29443H16.1673V17.5ZM21.9285 3.66406C24.0061 3.66406 25.219 4.77588 25.219 6.71875V6.74121C25.219 8.68408 24.0061 9.80713 21.9285 9.80713H19.0647V3.66406H21.9285ZM32.7331 17.7021C34.3503 17.7021 35.6531 17.0059 36.3269 15.8154H36.5178V17.5H39.2805V9.11084C39.2805 6.5166 37.5061 4.98926 34.3503 4.98926C31.4304 4.98926 29.4538 6.35938 29.1843 8.42578L29.1731 8.52686H31.8122L31.8235 8.48193C32.1042 7.67334 32.9353 7.21289 34.2156 7.21289C35.7204 7.21289 36.5178 7.88672 36.5178 9.11084V10.1665L33.362 10.3574C30.3747 10.5371 28.7014 11.8174 28.7014 14.0073V14.0298C28.7014 16.2646 30.3972 17.7021 32.7331 17.7021ZM31.4641 13.895V13.8726C31.4641 12.8618 32.1941 12.2891 33.7551 12.188L36.5178 12.0083V12.9966C36.5178 14.4565 35.2712 15.5571 33.5867 15.5571C32.3513 15.5571 31.4641 14.9395 31.4641 13.895ZM42.3474 21.8125C45.0651 21.8125 46.4689 20.8354 47.5246 17.7583L51.9269 5.2251H48.9846L46.132 14.8159H45.9186L43.0549 5.2251H40.0002L44.3913 17.5112L44.2453 18.0728C43.9421 19.1846 43.257 19.6562 42.1115 19.6562C41.8195 19.6562 41.5051 19.645 41.2805 19.6226V21.7676C41.6174 21.8013 42.0104 21.8125 42.3474 21.8125Z"
		/>
	</g>
 </svg>
