<svg
	viewBox="0 0 1000 1000"
	fill="currentColor"
	xmlns="http://www.w3.org/2000/svg"
>
<g transform="translate(0.000000,244.000000) scale(0.100000,-0.100000)"><path
			d="M3472.8,787c-41.9-27.9-818.1-792.9-1725.5-1700.3L100-2563.4l1689.2-1689.2c1622.2-1622.2,1694.8-1689.2,1792.5-1689.2c55.8,0,134,14,170.3,30.7c117.3,53,167.5,237.3,100.5,368.5c-16.8,33.5-622.6,656.1-1348.5,1382.1l-1315,1317.8h4263.4h4266.2l89.4,81c75.4,67,92.1,100.5,92.1,198.2c0,97.7-16.7,131.2-92.1,198.2l-89.4,81H5452.3H1188.9l1315,1320.6C3229.9-240.4,3835.7,382.2,3852.5,415.7c39.1,78.2,39.1,181.5,0,268C3793.8,809.4,3595.6,862.4,3472.8,787z"
		/></g>
</svg>
