<svg viewBox="0 0 1000 1000" fill="currentColor">
<g transform="translate(0.000000,244.000000) scale(0.100000,-0.100000)"><path
			d="M6242,786c-108.8-53-156.3-239.9-92.1-365.5c16.7-33.5,622.2-655.7,1347.7-1378.4l1314.2-1319.8H4551.1H287.6l-89.3-80.9c-131.1-114.4-131.1-281.8,0-396.2l89.3-80.9h4263.5h4260.7l-1314.2-1317c-725.5-725.5-1331-1347.7-1347.7-1381.2c-64.2-125.6-19.5-312.5,92.1-368.3c80.9-41.8,214.9-47.4,281.8-8.4c30.7,16.8,803.6,778.5,1716,1690.9l1660.2,1663L8211.9-868.6C6535,808.4,6521,819.5,6412.2,816.7C6350.8,816.7,6272.7,802.8,6242,786z"
		/></g>
</svg>
