<svg fill="currentColor" viewBox="0 0 1000 1000">

<g><g transform="translate(0.000000,353.000000) scale(0.100000,-0.100000)"><path
				d="M4901.6,3414.4c-33.5-14-86.5-61.4-120-103.3l-58.6-75.3v-4258.7v-4258.7L3405.7-3967.2C2680.1-3241.6,2057.8-2636,2024.3-2619.2c-125.6,64.2-312.6,19.6-368.4-92.1c-41.9-80.9-47.5-214.9-8.4-281.9c16.7-30.7,778.6-803.7,1691.2-1716.3L5002-6370l1688.4,1688.4c1621.4,1621.4,1688.4,1694,1688.4,1791.7c0,55.8-14,134-30.7,170.2c-53,117.2-237.2,167.4-368.4,100.4c-33.5-16.7-655.8-622.3-1378.6-1347.9l-1320-1314.4v4261.5v4264.3l-75.4,83.7C5122,3417.2,4996.4,3453.5,4901.6,3414.4z"
			/></g></g>
</svg>
