<svg
	xmlns="http://www.w3.org/2000/svg"
	fill="currentColor"
	viewBox="0 0 34 45"
	aria-labelledby="Bag"
>
	<g
		transform="translate(16.897959, 22.500000) scale(-1, 1) rotate(-180.000000) translate(-16.897959, -22.500000) translate(0.018367, 0.000000)"
	>
		<path
			d="M15.7366837,44.9196429 C13.0642347,44.5766327 10.585102,42.7922449 9.34530612,40.3131122 C8.66846939,38.9681633 8.43979592,37.7196429 8.43979592,35.3282143 L8.43979592,33.7633163 L9.83755102,33.7633163 L11.2353061,33.7633163 L11.2706633,35.7676531 C11.3060204,37.5258673 11.3321939,37.8247959 11.4993367,38.2729592 C12.1761735,40.1106122 13.460051,41.367398 15.2972449,41.9918878 C15.6664286,42.1236735 16.0356122,42.1590306 16.8795918,42.1590306 C17.7235714,42.1590306 18.0927551,42.1236735 18.4619388,41.9918878 C20.440102,41.3237755 21.8465816,39.8465816 22.330102,37.9304082 C22.4797959,37.3679082 22.5059694,36.9546429 22.5059694,35.5040816 L22.5059694,33.7633163 L23.912449,33.7633163 L25.3193878,33.7633163 L25.3193878,35.3810204 C25.3193878,36.2778061 25.2753061,37.315102 25.2225,37.6842857 C24.694898,41.4734694 21.6968878,44.4535714 17.9256122,44.9283673 C17.0995408,45.0252551 16.5632143,45.0252551 15.7366837,44.9196429 Z"
		/>
		<path
			d="M0,19.5391837 C0,12.1633163 0.0353571429,7.87316327 0.0877040816,7.39836735 C0.57122449,3.60918367 3.60413265,0.57627551 7.39331633,0.092755102 C8.38653061,-0.0303061224 25.3717347,-0.0303061224 26.3654082,0.092755102 C30.1545918,0.57627551 33.1875,3.60918367 33.6710204,7.39836735 C33.7238265,7.87316327 33.7587245,12.1633163 33.7587245,19.5391837 L33.7587245,30.9503571 L16.8795918,30.9503571 L0,30.9503571 L0,19.5391837 Z M11.2532143,23.9170408 L11.2532143,22.5105612 L9.84673469,22.5105612 L8.43979592,22.5105612 L8.43979592,23.9170408 L8.43979592,25.3235204 L9.84627551,25.3235204 L11.2527551,25.3235204 L11.2527551,23.9170408 L11.2532143,23.9170408 Z M25.3193878,23.9170408 L25.3193878,22.5105612 L23.9129082,22.5105612 L22.5064286,22.5105612 L22.5064286,23.9170408 L22.5064286,25.3235204 L23.9129082,25.3235204 L25.3193878,25.3235204 L25.3193878,23.9170408 Z"
		/>
	</g>
 </svg>
