<svg
	xmlns="http://www.w3.org/2000/svg"
	fill="currentColor"
	viewBox="0 0 43 45"
	aria-labelledby="Bank"
>
	<g
		transform="translate(16.897959, 22.500000) scale(-1, 1) rotate(-180.000000) translate(-16.897959, -22.500000) translate(0.018367, 0.000000)"
	>
		<path
			d="M11.5476035,35.8838265 L1.04361739,26.7681122 L1.01744696,25.335 L1,23.9110714 L22.095207,23.9110714 L43.1904139,23.9110714 L43.172967,25.335 L43.1467965,26.7681122 L32.6428104,35.8838265 C26.8678678,40.894898 22.1213774,45 22.095207,45 C22.0690365,45 17.3225461,40.894898 11.5476035,35.8838265 Z M31.2103235,35.7171429 L40.3075339,27.8228571 L31.2011409,27.7966837 C26.1911096,27.7879592 17.9988452,27.7879592 12.9888139,27.7966837 L3.87369739,27.8228571 L12.9621843,35.7084184 C17.9634922,40.0421939 22.0593948,43.5935364 22.0773009,43.5935364 C22.095207,43.6022449 26.199833,40.0509184 31.2103235,35.7171429 Z M22.9739826,29.5365306 L22.9739826,30.2923469 L23.4836174,30.3979592 C24.9601809,30.7056122 25.883033,31.9187755 25.7599861,33.4134184 C25.6543861,34.6178571 24.8899339,35.5233673 23.5538643,36.0068878 L23.0176,36.2002041 L22.9914296,37.2641327 L22.9897942,37.4069834 L22.9897942,37.4069834 L22.9898011,37.6751594 C22.9930939,38.0558801 23.0111722,38.327602 23.0442296,38.327602 C23.2549704,38.327602 23.6769113,37.6682143 23.6769113,37.3431122 C23.6769113,37.2287755 23.7209878,37.0882653 23.7825113,37.0267347 C23.9230052,36.8862245 25.1888278,36.8862245 25.3293217,37.0267347 C25.4785391,37.1759694 25.4610922,37.5364286 25.2939687,38.0378571 C24.9863513,38.9346429 24.309593,39.6114796 23.4395409,39.8837755 L22.9735235,40.0330102 L22.9735235,40.7888265 L21.2164313,40.7888265 L21.2164313,40.0421939 L20.7591374,39.9278571 C20.1085496,39.7781633 19.5548383,39.4089796 19.2210504,38.9080102 C18.2541217,37.4840816 18.8431861,35.8222959 20.6011965,34.9783163 L21.2164313,34.6793878 L21.2164313,33.3431633 C21.2164313,32.4027551 21.1902609,31.9982143 21.1195548,31.9982143 C21.0580313,31.9982143 20.8468313,32.1653571 20.6448139,32.3761224 C20.3720904,32.6488776 20.2490435,32.8509184 20.2054261,33.0970408 C20.1177322,33.6861735 20.0823791,33.7123469 19.3353739,33.7385204 C18.4565983,33.7738776 18.3684452,33.7031633 18.4299687,33.0791327 C18.4914922,32.5166327 18.807833,31.7957143 19.1769739,31.3737245 C19.4758678,31.0307143 20.2495026,30.582551 20.8468313,30.4066837 C21.1744835,30.3106725 21.2114795,30.2947339 21.2154982,30.0087015 L21.2159722,29.5365306 L22.9739826,29.5365306 Z M21.0493078,36.8334184 C20.8032139,36.9564796 20.5130435,37.3518367 20.5130435,37.5543367 C20.5130435,37.8619898 20.9175374,38.4070408 21.1549078,38.4157653 C21.1898017,38.4157653 21.2164313,38.0378571 21.2164313,37.5805102 C21.2164313,36.7806122 21.2077078,36.7452551 21.0493078,36.8334184 Z M23.0800417,31.9105102 C23.006712,31.9105102 22.978513,32.1983504 22.9748587,32.8872665 L22.9744417,34.1963265 L23.3174122,34.0204592 C23.510247,33.9322959 23.7476174,33.7477041 23.8444939,33.6159184 C24.0552348,33.3436224 24.0731409,33.0708673 23.9060174,32.6663265 C23.7829704,32.3761224 23.2733357,31.9105102 23.0800417,31.9105102 Z M10.8446748,-9.9475983e-14 L10.8446748,1.45056122 L9.43789913,2.85704082 L9.43789913,22.5045918 L5.21849043,22.5045918 L5.21894957,2.85704082 L4.51556174,2.15357143 L3.81263304,1.45056122 L3.81263304,-9.9475983e-14 L10.8446748,-9.9475983e-14 Z M20.6888904,-9.9475983e-14 L20.6888904,1.45056122 L19.9855026,2.15357143 L19.2821148,2.85704082 L19.2821148,22.5045918 L15.0627061,22.5045918 L15.0627061,12.6762245 L15.0636243,12.6762245 L15.0636243,2.85704082 L14.3602365,2.15357143 L13.6568487,1.45010204 L13.6568487,-9.9475983e-14 L20.6888904,-9.9475983e-14 Z M30.5335652,-9.9475983e-14 L30.5335652,1.45056122 L29.8301774,2.15357143 L29.1272487,2.85704082 L29.1272487,22.5045918 L24.90784,22.5045918 L24.90784,2.85704082 L24.2049113,2.15357143 L23.5015235,1.45010204 L23.5015235,-9.9475983e-14 L30.5335652,-9.9475983e-14 Z M40.3777809,-9.9475983e-14 L40.3777809,1.45056122 L39.6748522,2.15357143 L38.9714643,2.85704082 L38.9714643,22.5045918 L34.7520557,22.5045918 L34.7525148,2.85704082 L34.049127,2.15357143 L33.3457391,1.45010204 L33.3457391,-9.9475983e-14 L40.3777809,-9.9475983e-14 Z"
		/>
	</g>
 </svg>
