<svg
	xmlns="http://www.w3.org/2000/svg"
	fill="currentColor"
	viewBox="0 0 39 45"
	aria-labelledby="Bell"
>
	<g>
		<path
			d="M19.125,45 C21.6,45 23.625,42.975 23.625,40.5 L14.625,40.5 C14.625,42.975 16.65,45 19.125,45 L19.125,45 Z M33.75,31.5 L33.75,19.125 C33.75,12.15 29.025,6.525 22.5,4.95 L22.5,3.375 C22.5,1.575 20.925,0 19.125,0 C17.325,0 15.75,1.575 15.75,3.375 L15.75,4.95 C9.225,6.525 4.5,12.15 4.5,19.125 L4.5,31.5 L0,36 L0,38.25 L38.25,38.25 L38.25,36 L33.75,31.5 L33.75,31.5 Z"
		/>
	</g>
 </svg>
