<svg
	xmlns="http://www.w3.org/2000/svg"
	fill="currentColor"
	viewBox="0 0 40 45"
	aria-labelledby="Bill"
>
	<g>
		<path
			d="M28.8321429,23.8913265 C34.65,23.8913265 39.3887755,28.630102 39.3887755,34.4479592 C39.3887755,40.2612245 34.65,45 28.8321429,45 C23.0142857,45 18.2755102,40.2612245 18.2755102,34.4433673 C18.280102,28.6255102 22.9637755,23.8913265 28.8321429,23.8913265 Z M31.2520408,0 C33.5204082,0 35.3204082,1.8 35.3112595,4.06836735 L35.3112595,4.06836735 L35.3112595,20.6494898 C35.3112595,21.5219388 34.6454082,22.1923469 33.7683673,22.1923469 C32.8959184,22.1923469 32.2255102,21.5265306 32.2255102,20.6494898 L32.2255102,20.6494898 L32.2255102,4.06836735 C32.2255102,3.55408163 31.7617347,3.09030612 31.247449,3.09030612 L31.247449,3.09030612 L4.06377551,3.09030612 C3.49897959,3.09030612 3.08571429,3.55408163 3.08571429,4.06836735 L3.08571429,4.06836735 L3.08571429,40.6239796 C3.08571429,41.1887755 3.5494898,41.6020408 4.06377551,41.6020408 L4.06377551,41.6020408 L18.4821429,41.6020408 C19.3591837,41.6020408 20.080102,42.2219388 20.1306122,43.0438776 C20.1857143,43.9714286 19.4647959,44.6923469 18.5877551,44.6923469 L18.5877551,44.6923469 L4.06836735,44.6923469 C1.8,44.6923469 0,42.8877551 0,40.6239796 L0,40.6239796 L0,4.06836735 C0,1.8 1.80459184,0 4.06836735,0 L4.06836735,0 Z M28.8321429,26.3617347 C33.3137755,26.3617347 36.9688776,30.0168367 36.9688776,34.4984694 C36.9688776,38.980102 33.3137755,42.6306122 28.8321429,42.6306122 C24.3505102,42.6306122 20.6954082,38.9755102 20.6954082,34.4938776 C20.6954082,30.0122449 24.355102,26.3617347 28.8321429,26.3617347 Z M14.8821429,26.1642857 C15.2954082,26.577551 15.2954082,27.1928571 14.8821429,27.6061224 L9.73010204,32.7443878 C9.52346939,33.0015306 9.26632653,33.0566327 9.00918367,33.0566327 C8.75204082,33.0566327 8.49489796,32.9556122 8.28826531,32.7489796 L5.51020408,29.9709184 C5.09693878,29.5576531 5.09693878,28.9423469 5.51020408,28.5290816 C5.92346939,28.1158163 6.53877551,28.1158163 6.95204082,28.5290816 L9.01377551,30.5908163 L13.4403061,26.1642857 C13.8535714,25.7510204 14.4688776,25.7510204 14.8821429,26.1642857 Z M14.8821429,16.7877551 C15.2954082,17.2010204 15.2954082,17.8163265 14.8821429,18.2295918 L9.73010204,23.3770408 C9.52346939,23.5790816 9.26632653,23.6846939 9.00918367,23.6846939 C8.75204082,23.6846939 8.49489796,23.5836735 8.28826531,23.3770408 L5.51020408,20.5943878 C5.09693878,20.1811224 5.09693878,19.5658163 5.51020408,19.152551 C5.92346939,18.7392857 6.53877551,18.7392857 6.95204082,19.152551 L9.01377551,21.2142857 L13.4403061,16.7877551 C13.8535714,16.3744898 14.4688776,16.3744898 14.8821429,16.7877551 Z M28.8321429,18.1239796 C29.3969388,18.1239796 29.8607481,18.5877551 29.8607481,19.152551 C29.8653061,19.7219388 29.4015306,20.1811224 28.8321429,20.1811224 L18.844898,20.1811224 C18.280102,20.1811224 17.8163265,19.7173469 17.8163265,19.152551 C17.8163265,18.5877551 18.280102,18.1239796 18.844898,18.1239796 L28.8321429,18.1239796 Z M14.8821429,7.1127551 C15.2954082,7.52602041 15.2954082,8.14132653 14.8821429,8.55459184 L9.73010204,13.697449 C9.55790816,13.8658163 9.35063776,13.9672194 9.13752126,13.9963435 L9.00918367,14.005102 C8.75204082,14.005102 8.49489796,13.9040816 8.28826531,13.697449 L5.51020408,10.9193878 C5.09693878,10.5061224 5.09693878,9.89081633 5.51020408,9.47755102 C5.92346939,9.06428571 6.53877551,9.06428571 6.95204082,9.47755102 L9.01377551,11.5392857 L13.4403061,7.1127551 C13.8535714,6.6994898 14.4688776,6.6994898 14.8821429,7.1127551 Z M28.8321429,9.37193878 C29.3969388,9.37193878 29.8607143,9.83571429 29.8607143,10.4005102 C29.8607143,10.9653061 29.4015306,11.4290816 28.8321429,11.4290816 L18.844898,11.4290816 C18.280102,11.4290816 17.8163265,10.9653061 17.8163265,10.4005102 C17.8163265,9.83571429 18.280102,9.37193878 18.844898,9.37193878 L28.8321429,9.37193878 Z"
		/>
	</g>
 </svg>
