<svg
	xmlns="http://www.w3.org/2000/svg"
	fill="currentColor"
	viewBox="0 0 1000 1000"
	aria-labelledby="Bin"
>
	<g>
		<g transform="translate(0.000000,512.000000) scale(0.100000,-0.100000)">
			<path
				d="M3669.5,4997.8c-120.6-38.3-187.6-78.5-275.7-166.6c-172.3-172.3-231.6-367.6-231.6-758.1v-271.8l-961-5.8l-962.9-5.7l-105.3-49.8c-126.4-59.4-254.6-183.8-317.8-308.2c-80.4-158.9-103.4-289.1-103.4-583.9v-273.8H5000h4288.3v273.8c0,294.8-23,425-103.4,583.9c-63.2,124.4-191.4,248.9-317.8,308.2l-105.3,49.8l-961,5.7l-962.9,5.8v271.8c0,294.8-23,425-103.4,583.9c-63.2,124.4-191.4,248.9-317.8,308.2l-105.3,49.8l-1282.7,3.8C4031.3,5022.7,3728.8,5017,3669.5,4997.8z M5813.6,4354.6c178-86.2,348.4-304.4,384.8-492l13.4-63.2H5001.9c-1047.2,0-1208,3.8-1208,28.7c0,55.5,78.5,231.7,143.6,319.7c74.7,101.5,210.6,201,323.5,237.4c59.3,19.1,243.1,24.9,767.7,21.1l689.2-3.8L5813.6,4354.6z"
			/>
			<path
				d="M1324.3,1515.5v-446l229.7-1837.8c124.4-1008.9,262.3-2125,304.4-2477.3c44-352.2,86.1-696.8,97.6-765.8c51.7-352.2,352.3-658.6,721.7-737c193.3-42.1,4451-42.1,4644.3,0c379,80.4,677.7,390.5,725.6,760c9.6,76.6,155.1,1244.4,323.5,2595.9l304.4,2454.3v449.9v449.9H5000H1324.3V1515.5z M3589.1,688.5c40.2-28.7,93.8-91.9,124.4-149.3l51.7-99.6v-1847.4v-1847.4l-51.7-99.6c-74.7-137.8-147.4-185.7-304.4-193.4c-149.3-9.6-245,26.8-306.3,114.9c-59.4,82.3-559,3486.1-547.5,3721.6c11.5,212.5,90,386.7,195.3,430.7c21.1,7.7,202.9,15.3,402,15.3C3512.5,736.4,3518.3,736.4,3589.1,688.5z M5403.9,707.6c80.4-42.1,164.6-168.5,189.5-283.3c15.3-70.8,19.1-624.1,15.3-1889.5l-5.7-1790l-46-91.9c-22.9-49.8-74.6-114.9-112.9-143.6l-67-51.7h-375.2c-361.8,0-377.1,1.9-438.4,44c-34.5,24.9-86.1,90-114.9,143.6l-51.7,99.6l-5.7,1805.3c-1.9,1154.4,1.9,1832.1,15.3,1876.1c28.7,109.1,120.6,241.2,193.4,277.6C4691.8,747.9,5317.8,751.7,5403.9,707.6z M7293.5,688.5c30.6-24.9,76.6-91.9,99.6-147.4c88-199.1,84.2-243.1-197.2-2161.3c-281.4-1924-262.3-1834-407.8-1902.9c-51.7-23-103.4-30.6-197.2-24.9c-157,7.7-222.1,49.8-300.5,191.4l-55.5,101.5v1847.4V439.6l51.7,99.6c47.9,90,114.9,157,187.6,183.8c15.3,5.8,193.3,11.5,396.3,11.5C7234.1,736.4,7237.9,736.4,7293.5,688.5z"
			/>
		</g>
	</g>
 </svg>
