<svg
	version="1.1"
	xmlns="http://www.w3.org/2000/svg"
	xmlns:xlink="http://www.w3.org/1999/xlink"
	x="0px"
	y="0px"
	viewBox="0 0 1000 1000"
	enable-background="new 0 0 1000 1000"
	xml:space="preserve"
	fill="currentColor"
>
<g><path
			d="M847.1,499.7c0-68.5-18.5-131.2-55.5-188.2L310.5,791.9c58.3,37.9,121.4,56.8,189.5,56.8c47.2,0,92.2-9.3,134.9-27.8s79.6-43.3,110.7-74.3c31-31,55.7-68.2,74-111.3S847.1,546.9,847.1,499.7L847.1,499.7z M209.7,690.4l481.7-481.1C634,170.7,570.2,151.3,500,151.3c-63,0-121,15.5-174.2,46.6c-53.2,31.1-95.3,73.4-126.3,127c-31,53.6-46.6,111.9-46.6,174.8C152.9,568.6,171.8,632.2,209.7,690.4L209.7,690.4z M990,499.7c0,66.8-13,130.6-38.9,191.4c-25.9,60.8-60.7,113.1-104.3,157s-95.7,78.7-156.3,104.6c-60.6,25.9-124.1,38.9-190.4,38.9c-66.4,0-129.8-13-190.4-38.9c-60.6-25.9-112.7-60.8-156.3-104.6s-78.4-96.1-104.3-157C23,630.3,10,566.5,10,499.7c0-66.8,13-130.5,38.9-191.1C74.9,248,109.6,195.8,153.2,152c43.6-43.8,95.7-78.7,156.3-104.6S433.6,8.4,500,8.4c66.4,0,129.8,13,190.4,38.9S803.2,108.1,846.8,152c43.6,43.8,78.4,96,104.3,156.6C977,369.2,990,432.9,990,499.7z"
		/></g>
</svg>
