<svg
	xmlns="http://www.w3.org/2000/svg"
	fill="currentColor"
	viewBox="0 0 1000 1000"
	aria-labelledby="Bookmark"
>
	<g>
		<path
			d="M831.7,92.9v805.1L557.4,634.3c-16-15.4-36.7-23.1-57.4-23.1c-20.7,0-41.4,7.7-57.4,23.1L168.3,897.9V92.9H831.7 M839.4,10c-20.1,0-658.7,0-678.8,0c-9.7,0-19.4,1.9-28.5,5.8c-28.5,11-46.6,37.6-46.6,66.7v834.9c0,29.1,18.1,55.7,46.6,66.7c9.1,3.9,18.8,5.8,28.5,5.8c20.1,0,38.9-7.8,53.8-21.4L500,694l285.6,274.6c14.9,13.6,33.7,20.7,53.8,20.7c9.7,0,19.4-1.3,28.5-5.2c28.5-11,46.6-37.6,46.6-66.7V82.5c0-29.1-18.1-55.7-46.6-66.7C858.8,11.9,849.1,10,839.4,10L839.4,10z"
		/>
	</g>
 </svg>
