<svg
	xmlns="http://www.w3.org/2000/svg"
	fill="currentColor"
	viewBox="0 0 1000 1000"
	aria-labelledby="Calendar"
>
	<g>
		<path
			d="M799.7,81.7H678.2V43.5c0-18.5-13.6-33.5-30.2-33.5c-16.7,0-30.2,15-30.2,33.5v38.2H382.3V43.5c0-18.5-13.6-33.5-30.2-33.5c-16.7,0-30.2,15-30.2,33.5v38.2H200.3C95.4,81.7,10,176.4,10,292.8v486.1C10,895.3,95.4,990,200.3,990h599.5C904.6,990,990,895.3,990,778.9V292.8C990,176.4,904.6,81.7,799.7,81.7z M200.3,115.2c0,0,82.3,0,121.6,0v78.4c0,18.5,13.6,33.5,30.2,33.5c16.7,0,30.2-15,30.2-33.5v-78.4c99.6,0,135.8,0,235.4,0v78.4c0,18.5,13.6,33.5,30.2,33.5c16.7,0,30.2-15,30.2-33.5v-78.4c39.3,0,121.6,0,121.6,0c88.2,0,160,79.7,160,177.6v60.7H40.2v-60.7C40.2,194.9,112,115.2,200.3,115.2z M799.7,956.5H200.3c-88.2,0-160-79.7-160-177.6V387h919.5v392C959.8,876.8,888,956.5,799.7,956.5z"
		/>
		<path
			d="M183.6,571.3c0,32.8,26.6,59.3,59.3,59.3c32.8,0,59.3-26.6,59.3-59.3S275.7,512,242.9,512C210.2,512,183.6,538.5,183.6,571.3L183.6,571.3z"
		/>
		<path
			d="M440.7,571.3c0,32.8,26.6,59.3,59.3,59.3c32.8,0,59.3-26.6,59.3-59.3S532.8,512,500,512C467.2,512,440.7,538.5,440.7,571.3L440.7,571.3z"
		/>
		<path
			d="M697.7,571.3c0,32.8,26.6,59.3,59.3,59.3c32.8,0,59.3-26.6,59.3-59.3S789.8,512,757.1,512C724.3,512,697.7,538.5,697.7,571.3z"
		/>
		<path
			d="M183.6,774.3c0,32.8,26.6,59.3,59.3,59.3c32.8,0,59.3-26.6,59.3-59.3s-26.6-59.3-59.3-59.3C210.2,714.9,183.6,741.5,183.6,774.3L183.6,774.3L183.6,774.3z"
		/>
		<path
			d="M440.7,774.3c0,32.8,26.6,59.3,59.3,59.3c32.8,0,59.3-26.6,59.3-59.3s-26.6-59.3-59.3-59.3C467.2,714.9,440.7,741.5,440.7,774.3L440.7,774.3L440.7,774.3z"
		/>
		<path
			d="M697.7,774.3c0,32.8,26.6,59.3,59.3,59.3c32.8,0,59.3-26.6,59.3-59.3s-26.6-59.3-59.3-59.3C724.3,714.9,697.7,741.5,697.7,774.3L697.7,774.3z"
		/>
	</g>
 </svg>
