<svg
	xmlns="http://www.w3.org/2000/svg"
	fill="currentColor"
	viewBox="0 0 20 18"
	aria-labelledby="Camera"
>
	<g>
		<path
			d="M7,0 L5.2,2 L2,2 C0.9,2 0,2.9 0,4 L0,16 C0,17.1 0.9,18 2,18 L18,18 C19.1,18 20,17.1 20,16 L20,4 C20,2.9 19.1,2 18,2 L14.8,2 L13,0 L7,0 L7,0 Z M10,15 C7.2,15 5,12.8 5,10 C5,7.2 7.2,5 10,5 C12.8,5 15,7.2 15,10 C15,12.8 12.8,15 10,15 L10,15 Z M10.2,13.4 C11.9673112,13.4 13.4,11.9673112 13.4,10.2 C13.4,8.4326888 11.9673112,7 10.2,7 C8.4326888,7 7,8.4326888 7,10.2 C7,11.9673112 8.4326888,13.4 10.2,13.4 Z"
		/>
	</g>
 </svg>
