<svg
	xmlns="http://www.w3.org/2000/svg"
	fill="currentColor"
	viewBox="0 0 45 34"
	aria-labelledby="Card"
>
	<g>
		<path
			d="M40.78125,39.75 L4.21875,39.75 C1.88876953,39.75 0,37.8612305 0,35.53125 L0,10.21875 C0,7.88876953 1.88876953,6 4.21875,6 L40.78125,6 C43.1112305,6 45,7.88876953 45,10.21875 L45,35.53125 C45,37.8612305 43.1112305,39.75 40.78125,39.75 Z M14.0625,14.4375 C10.955918,14.4375 8.4375,16.955918 8.4375,20.0625 C8.4375,23.169082 10.955918,25.6875 14.0625,25.6875 C17.169082,25.6875 19.6875,23.169082 19.6875,20.0625 C19.6875,16.955918 17.169082,14.4375 14.0625,14.4375 L14.0625,14.4375 Z M21.057627,28.0192383 L18.5719922,27.1906934 C17.2668164,28.0194141 15.7197656,28.5 14.0625,28.5 C12.4052344,28.5 10.8581836,28.0194141 9.55291992,27.1906934 L7.06728516,28.0192383 C6.20596924,28.306366 5.625,29.1124182 5.625,30.020332 L5.625,32.015625 C5.625,33.1806152 6.56938477,34.125 7.734375,34.125 L20.390625,34.125 C21.5556152,34.125 22.5,33.1806152 22.5,32.015625 L22.5,30.020332 C22.5,29.1123949 21.9189776,28.3063356 21.057627,28.0192383 Z M39.375,30.2578125 L39.375,29.5546875 C39.375,28.9722363 38.9027637,28.5 38.3203125,28.5 L26.3671875,28.5 C25.7847363,28.5 25.3125,28.9722363 25.3125,29.5546875 L25.3125,30.2578125 C25.3125,30.8402637 25.7847363,31.3125 26.3671875,31.3125 L38.3203125,31.3125 C38.9027637,31.3125 39.375,30.8402637 39.375,30.2578125 Z M39.375,24.6328125 L39.375,23.9296875 C39.375,23.3472363 38.9027637,22.875 38.3203125,22.875 L26.3671875,22.875 C25.7847363,22.875 25.3125,23.3472363 25.3125,23.9296875 L25.3125,24.6328125 C25.3125,25.2152637 25.7847363,25.6875 26.3671875,25.6875 L38.3203125,25.6875 C38.9027637,25.6875 39.375,25.2152637 39.375,24.6328125 Z M39.375,19.0078125 L39.375,18.3046875 C39.375,17.7222363 38.9027637,17.25 38.3203125,17.25 L26.3671875,17.25 C25.7847363,17.25 25.3125,17.7222363 25.3125,18.3046875 L25.3125,19.0078125 C25.3125,19.5902637 25.7847363,20.0625 26.3671875,20.0625 L38.3203125,20.0625 C38.9027637,20.0625 39.375,19.5902637 39.375,19.0078125 Z M42.1875,10.5703125 L42.1875,9.8671875 C42.1875,9.28473633 41.7152637,8.8125 41.1328125,8.8125 L3.8671875,8.8125 C3.28473633,8.8125 2.8125,9.28473633 2.8125,9.8671875 L2.8125,10.5703125 C2.8125,11.1527637 3.28473633,11.625 3.8671875,11.625 L41.1328125,11.625 C41.7152637,11.625 42.1875,11.1527637 42.1875,10.5703125 Z"
		/>
	</g>
 </svg>
