<svg
	version="1.1"
	xmlns="http://www.w3.org/2000/svg"
	viewBox="0 0 1000 1000"
	fill="currentColor"
>
<g><path
			d="M10,500c0,57,46.2,103.3,103.3,103.3c57,0,103.3-46.2,103.3-103.3c0-57-46.2-103.3-103.3-103.3C56.2,396.7,10,443,10,500L10,500z"
		/><path
			d="M396.7,500c0,57,46.2,103.3,103.3,103.3c57,0,103.3-46.2,103.3-103.3c0-57-46.2-103.3-103.3-103.3C443,396.7,396.7,443,396.7,500L396.7,500z"
		/><path
			d="M783.5,500c0,57,46.2,103.3,103.3,103.3c57,0,103.3-46.2,103.3-103.3c0-57-46.2-103.3-103.3-103.3C829.7,396.7,783.5,443,783.5,500L783.5,500z"
		/></g>
</svg>
