<svg
	xmlns="http://www.w3.org/2000/svg"
	fill="currentColor"
	viewBox="0 0 1000 1000"
	aria-labelledby="CrossCircle"
>
	<g>
		<path
			d="M908.6,947.2c0,23.7-19.2,42.8-42.8,42.8H134.3c-23.7,0-42.8-19.2-42.8-42.8l0,0c0-23.7,19.2-42.8,42.8-42.8h731.5C889.4,904.3,908.6,923.5,908.6,947.2L908.6,947.2z"
		/>
		<path
			d="M500,826.3c-23.7,0-42.8-19.2-42.8-42.8V52.8c0-23.7,19.2-42.8,42.8-42.8l0,0c23.7,0,42.9,19.2,42.9,42.8v730.6C542.8,807.1,523.7,826.3,500,826.3L500,826.3z"
		/>
		<path
			d="M530.3,813.5c-16.7,16.7-43.9,16.7-60.6,0L148.1,491.9c-16.7-16.7-16.7-43.9,0-60.6l0,0c16.7-16.7,43.9-16.7,60.6,0l321.6,321.6C547,769.6,547,796.8,530.3,813.5L530.3,813.5z"
		/>
		<path
			d="M469.7,813.5c-16.7-16.7-16.7-43.9,0-60.6l321.6-321.6c16.7-16.7,43.9-16.7,60.6,0l0,0c16.7,16.7,16.7,43.9,0,60.6L530.3,813.5C513.6,830.2,486.4,830.2,469.7,813.5L469.7,813.5z"
		/>
	</g>
 </svg>
