<svg viewBox="0 0 20 20" fill="currentColor" xmlns="http://www.w3.org/2000/svg">
<path
		fill-rule="evenodd"
		clip-rule="evenodd"
		d="M11.2564 1.0257V2.4616H3.01511C2.14374 2.4616 1.40705 3.1857 1.40705 4.04416V17.1283C1.40705 18.0606 2.2352 18.5642 3.01511 18.5642H15.2765C16.164 18.5642 16.7841 17.9734 16.7841 17.1283L16.6836 10.5508L18.0906 10.5293L18.1911 17.117C18.1911 18.7652 16.9379 20.0001 15.2765 20.0001H3.01511C1.32464 20.0001 0 18.7395 0 17.1283V4.04416C0 2.37955 1.35278 1.0257 3.01511 1.0257H11.2564ZM16.0804 6.10352e-05L20 4.00006L10.5527 13.5385L5.7285 14.5642L6.73353 9.74365L16.0804 6.10352e-05ZM16.0914 2.04109L8.025 10.4503L7.55364 12.7098L9.85919 12.2195L18.005 3.99493L16.0914 2.04109Z"
	/>
</svg>
