<svg version="1.1" viewBox="0 0 1000 1000" fill="currentColor">
<g><path
			d="M551.6,800.3c-14.2,14.2-31.4,21.3-51.4,21.3s-37.6-7.1-51.9-21.3c-14.8-14.3-21.9-31.4-21.9-51.9c0-20,7.1-37.7,21.9-51.9c14.3-14.8,31.9-21.9,51.9-21.9s37.1,7.1,51.4,21.9c14.8,14.2,21.9,31.9,21.9,51.9C573.5,768.9,566.4,786,551.6,800.3z M447.4,311.1c13.8-14.7,31.4-22.4,52.8-22.4c21.4,0,39,7.1,52.8,22.4c13.3,14.7,20.4,33.3,20.4,55.7c0,19-28.6,160.3-38.5,263.1h-69c-8.1-102.8-39.5-244.2-39.5-263.1C426.5,344.9,433.6,326.3,447.4,311.1z M969.9,791.7L585.4,120.8c-47.1-81.8-123.7-81.8-170.8,0L30.1,791.7c-47,81.8-8.6,148.9,85.6,148.9h769C978.4,940.6,1017,873.5,969.9,791.7z"
		/></g>
</svg>
