<svg viewBox="0 0 20 15" xmlns="http://www.w3.org/2000/svg" fill="currentColor">
<path
		fill-rule="evenodd"
		clip-rule="evenodd"
		d="M3.7707 0L18.1777 14.408H16.1967L1.8037 0H3.7707ZM3.843 3.0432L4.866 4.0662C3.574 4.8472 2.452 5.9092 1.619 7.2202C3.434 10.0752 6.579 11.8202 10 11.8202C10.798 11.8202 11.579 11.7162 12.334 11.5342L13.471 12.6722C12.377 13.0242 11.212 13.2202 10 13.2202C5.665 13.2202 1.903 10.7882 0 7.2202C0.905 5.5222 2.235 4.0872 3.843 3.0432ZM10.0002 1.2197C14.3342 1.2197 18.0972 3.6517 20.0002 7.2197C19.0942 8.9177 17.7652 10.3527 16.1562 11.3967L15.1342 10.3737C16.4252 9.5927 17.5472 8.5307 18.3802 7.2197C16.5662 4.3647 13.4202 2.6197 10.0002 2.6197C9.2012 2.6197 8.4212 2.7237 7.6662 2.9057L6.5292 1.7677C7.6232 1.4157 8.7872 1.2197 10.0002 1.2197ZM6.7471 5.947L7.9111 7.111C7.9091 7.148 7.9001 7.183 7.9001 7.22C7.9001 8.378 8.8421 9.32 10.0001 9.32C10.0371 9.32 10.0721 9.311 10.1091 9.309L11.2731 10.473C10.8771 10.628 10.4501 10.72 10.0001 10.72C8.0671 10.72 6.5001 9.153 6.5001 7.22C6.5001 6.77 6.5921 6.342 6.7471 5.947ZM9.9997 3.7205C11.9327 3.7205 13.4997 5.2875 13.4997 7.2205C13.4997 7.6705 13.4077 8.0975 13.2527 8.4925L12.0887 7.3285C12.0907 7.2915 12.0997 7.2575 12.0997 7.2205C12.0997 6.0625 11.1577 5.1205 9.9997 5.1205L9.8917 5.1305L8.7277 3.9675C9.1227 3.8125 9.5497 3.7205 9.9997 3.7205Z"
	/>
</svg>
