<svg
	width="20"
	height="12"
	viewBox="0 0 20 12"
	fill="currentColor"
	xmlns="http://www.w3.org/2000/svg"
>
<path
		fill-rule="evenodd"
		clip-rule="evenodd"
		d="M10 0C14.335 0 18.097 2.432 20 6C18.097 9.568 14.335 12 10 12C5.665 12 1.903 9.568 0 6C1.903 2.432 5.665 0 10 0ZM10 1.4C6.579 1.4 3.434 3.145 1.62 6C3.434 8.855 6.579 10.6 10 10.6C13.421 10.6 16.566 8.855 18.38 6C16.566 3.145 13.421 1.4 10 1.4ZM10 2.5C11.933 2.5 13.5 4.067 13.5 6C13.5 7.933 11.933 9.5 10 9.5C8.067 9.5 6.5 7.933 6.5 6C6.5 4.067 8.067 2.5 10 2.5ZM10 3.9C8.842 3.9 7.9 4.842 7.9 6C7.9 7.158 8.842 8.1 10 8.1C11.158 8.1 12.1 7.158 12.1 6C12.1 4.842 11.158 3.9 10 3.9Z"
	/>
</svg>
