<svg
	xmlns="http://www.w3.org/2000/svg"
	fill="currentColor"
	viewBox="0 0 1000 1000"
	aria-labelledby="File"
>
	<g>
		<path
			d="M808.2,80c18.8,17.4,33.8,31.9,44.9,43.4c11.1,11.5,19.7,21.3,25.6,29.3c5.9,8,9.6,14.8,11,20.4c1.4,5.6,2.1,10.5,2.1,14.6v16.7H737.2c-7,0-13.1-2.6-18.3-7.8c-5.2-5.2-9.6-11.3-13.1-18.3c-3.5-7-6.1-14.1-7.8-21.4c-1.7-7.3-2.6-13.1-2.6-17.3V10h3.1c5.6,0,11.3,0.9,17.3,2.6c5.9,1.7,12.7,5,20.4,9.9c7.6,4.9,17.2,11.8,28.7,20.9S790.8,64.7,808.2,80L808.2,80z M629.5,140.6c0,13.9,2.1,28.4,6.3,43.4c4.2,15,10.8,28.9,19.9,41.8c9.1,12.9,20.5,23.5,34.5,31.9c13.9,8.4,30.3,12.5,49.1,12.5h152.6v589.2c0,20.2-4,38.3-12,54.3c-8,16-18.6,29.6-31.9,40.8c-13.2,11.1-27.9,19.8-43.9,26.1c-16,6.3-31.7,9.4-47,9.4H243c-13.2,0-27.7-3.8-43.4-11.5c-15.7-7.7-30.3-17.8-43.9-30.3c-13.6-12.5-24.9-26.8-34-42.8c-9-16-13.6-32.7-13.6-50.1V144.8c0-14.6,3.3-29.8,9.9-45.4c6.6-15.7,15.7-30.1,27.2-43.4c11.5-13.2,24.6-24.2,39.2-32.9c14.6-8.7,29.9-13,46-13.1h399.1L629.5,140.6L629.5,140.6z M695.3,792.5c18.1,0,33.4-6.4,46-19.3c12.5-12.9,18.8-28.4,18.8-46.5c0-18.1-6.3-33.4-18.8-46c-12.6-12.5-27.9-18.8-46-18.8H303.6c-18.1,0-33.4,6.3-46,18.8c-12.5,12.5-18.8,27.9-18.8,46c0,18.1,6.3,33.6,18.8,46.5c12.6,12.9,27.9,19.3,46,19.3H695.3z M760.1,466.6c0-18.1-6.3-33.6-18.8-46.5c-12.5-12.9-27.9-19.3-46-19.3H303.6c-18.1,0-33.4,6.4-46,19.3c-12.5,12.9-18.8,28.4-18.8,46.5c0,18.1,6.3,33.4,18.8,46c12.6,12.5,27.9,18.8,46,18.8h391.8c18.1,0,33.4-6.3,46-18.8C753.8,500,760.1,484.7,760.1,466.6z"
		/>
	</g>
 </svg>
