<svg viewBox="0 0 18 12" fill="currentColor" xmlns="http://www.w3.org/2000/svg">
<path
		d="M8 12.0001H10C10.55 12.0001 11 11.5501 11 11.0001C11 10.4501 10.55 10.0001 10 10.0001H8C7.45 10.0001 7 10.4501 7 11.0001C7 11.5501 7.45 12.0001 8 12.0001ZM0 1.00006C0 1.55006 0.45 2.00006 1 2.00006H17C17.55 2.00006 18 1.55006 18 1.00006C18 0.450061 17.55 6.10352e-05 17 6.10352e-05H1C0.45 6.10352e-05 0 0.450061 0 1.00006ZM4 7.00006H14C14.55 7.00006 15 6.55006 15 6.00006C15 5.45006 14.55 5.00006 14 5.00006H4C3.45 5.00006 3 5.45006 3 6.00006C3 6.55006 3.45 7.00006 4 7.00006Z"
	/>
</svg>
