<svg
	viewBox="0 0 165 131"
	fill="currentColor"
	xmlns="http://www.w3.org/2000/svg"
>
<path
		fill-rule="evenodd"
		clip-rule="evenodd"
		d="M79.9692 13.0299L113.408 100.271C114.355 102.761 114.907 105.452 114.907 108.272C114.907 120.412 105.029 130.29 92.8891 130.29C81.7336 130.29 72.5129 121.941 71.0857 111.167H55.4953C54.0714 121.941 44.8507 130.29 33.6953 130.29C22.5398 130.29 13.3191 121.941 11.8953 111.167H0.75V64.5017H12.7673V13.0299H79.9692ZM92.8891 92.0446C83.9408 92.0446 76.6583 99.3238 76.6583 108.272C76.6583 117.22 83.9408 124.499 92.8891 124.499C101.837 124.499 109.12 117.22 109.12 108.272C109.12 99.3238 101.837 92.0446 92.8891 92.0446ZM33.6953 92.0446C24.747 92.0446 17.4645 99.3238 17.4645 108.272C17.4645 117.22 24.747 124.499 33.6953 124.499C42.6435 124.499 49.9226 117.22 49.9226 108.272C49.9226 99.3238 42.6435 92.0446 33.6953 92.0446ZM92.8925 103.105C95.7435 103.105 98.0598 105.418 98.0598 108.273C98.0598 111.124 95.7435 113.44 92.8925 113.44C90.038 113.44 87.7218 111.124 87.7218 108.273C87.7218 105.418 90.038 103.105 92.8925 103.105ZM33.6956 103.105C36.55 103.105 38.8629 105.418 38.8629 108.273C38.8629 111.124 36.55 113.44 33.6956 113.44C30.8412 113.44 28.5283 111.124 28.5283 108.273C28.5283 105.418 30.8412 103.105 33.6956 103.105ZM87.0545 0.782349L127.214 105.419L162.35 91.9302L164.427 97.3325L123.879 112.899L80.8653 0.782349H87.0545ZM34.213 70.2923H6.53722V105.377H11.8953C13.3191 94.6027 22.5398 86.254 33.6953 86.254C44.8507 86.254 54.0714 94.6027 55.4953 105.377H71.0857C72.5129 94.6027 81.7336 86.254 92.8891 86.254C96.4316 86.254 99.7697 87.1124 102.737 88.6043L99.3575 79.7992H37.3263L34.213 70.2923ZM149.162 43.9736L164.426 83.7347L130.462 96.6104L115.195 56.8492L149.162 43.9736ZM145.821 51.4299L137.244 54.6828L139.707 61.1104L134.301 63.1814L131.828 56.7368L122.686 60.2044L133.8 89.1541L156.935 80.3796L145.821 51.4299ZM75.9838 18.8205H18.5545V64.5017H38.4129L41.5262 74.0085H97.1401L75.9838 18.8205Z"
	/>
</svg>
