<svg
	xmlns="http://www.w3.org/2000/svg"
	fill="currentColor"
	aria-labelledby="GooglePay"
	viewBox="0 0 62 24"
>
	<g>
		<path
			d="M28.9512 11.6726V18.7486H26.6904V1.2749H32.6839C34.2029 1.2749 35.4982 1.77783 36.5579 2.78368C37.6412 3.78952 38.1829 5.01759 38.1829 6.46788C38.1829 7.95326 37.6412 9.18133 36.5579 10.1755C35.51 11.1696 34.2147 11.6609 32.6839 11.6609H28.9512V11.6726ZM28.9512 3.42695V9.52051H32.731C33.6259 9.52051 34.3795 9.21642 34.9683 8.61993C35.5688 8.02343 35.875 7.29829 35.875 6.47957C35.875 5.67256 35.5688 4.95911 34.9683 4.36262C34.3795 3.74274 33.6377 3.43864 32.731 3.43864H28.9512V3.42695Z"
			fill="#5F6368"
		/>
		<path
			d="M44.0945 6.39795C45.7665 6.39795 47.0853 6.84239 48.0509 7.73128C49.0165 8.62017 49.4992 9.83654 49.4992 11.3804V18.7488H47.3444V17.088H47.2502C46.32 18.4564 45.0718 19.1348 43.5175 19.1348C42.1869 19.1348 41.08 18.7488 40.1851 17.9652C39.2902 17.1816 38.8428 16.2108 38.8428 15.0412C38.8428 13.8015 39.3138 12.819 40.2558 12.0938C41.1978 11.357 42.4577 10.9944 44.0238 10.9944C45.3662 10.9944 46.473 11.2401 47.3326 11.7313V11.2167C47.3326 10.433 47.0265 9.77806 46.4024 9.22835C45.7783 8.67865 45.0483 8.40964 44.2122 8.40964C42.9523 8.40964 41.9514 8.93596 41.2213 10.0003L39.2313 8.76052C40.3264 7.18157 41.9514 6.39795 44.0945 6.39795ZM41.1742 15.0763C41.1742 15.6611 41.4215 16.1523 41.9278 16.5383C42.4224 16.9243 43.0112 17.1231 43.6823 17.1231C44.6361 17.1231 45.4839 16.7722 46.2258 16.0705C46.9676 15.3687 47.3444 14.55 47.3444 13.6026C46.6379 13.0529 45.6606 12.7722 44.4006 12.7722C43.4822 12.7722 42.7168 12.9944 42.1045 13.4272C41.4804 13.8833 41.1742 14.433 41.1742 15.0763Z"
			fill="#5F6368"
		/>
		<path
			d="M61.7919 6.78369L54.2559 24.0001H51.9244L54.7269 17.9767L49.7578 6.78369H52.2188L55.7984 15.3685H55.8455L59.3309 6.78369H61.7919Z"
			fill="#5F6368"
		/>
		<path
			d="M19.9579 10.2446C19.9579 9.51245 19.892 8.81187 19.7695 8.13818H10.293V11.9978L15.7507 11.999C15.5293 13.2832 14.817 14.3779 13.7254 15.1078V17.6119H16.9741C18.8711 15.868 19.9579 13.2902 19.9579 10.2446Z"
			fill="#4285F4"
		/>
		<path
			d="M13.7265 15.1085C12.8222 15.7144 11.6576 16.0688 10.2953 16.0688C7.66354 16.0688 5.43099 14.3074 4.63146 11.9331H1.28027V14.5156C2.94056 17.7881 6.35297 20.0337 10.2953 20.0337C13.02 20.0337 15.3091 19.1436 16.9753 17.6115L13.7265 15.1085Z"
			fill="#34A853"
		/>
		<path
			d="M4.31633 10.0175C4.31633 9.35081 4.42819 8.70637 4.6319 8.10052V5.51807H1.28072C0.594228 6.87128 0.208008 8.39877 0.208008 10.0175C0.208008 11.6362 0.595406 13.1637 1.28072 14.5169L4.6319 11.9344C4.42819 11.3286 4.31633 10.6841 4.31633 10.0175Z"
			fill="#FABB05"
		/>
		<path
			d="M10.2953 3.96442C11.7825 3.96442 13.1142 4.47319 14.1657 5.46734L17.0447 2.61004C15.2961 0.992494 13.0165 -0.000488281 10.2953 -0.000488281C6.35415 -0.000488281 2.94056 2.24512 1.28027 5.51763L4.63146 8.10009C5.43099 5.72582 7.66354 3.96442 10.2953 3.96442Z"
			fill="#E94235"
		/>
	</g>
 </svg>
