<svg
	xmlns="http://www.w3.org/2000/svg"
	fill="currentColor"
	viewBox="0 0 24 24"
	aria-labelledby="Google"
>
	<g>
		<path
			d="M23.7573 9.80219C23.9037 10.5867 23.9835 11.407 23.9835 12.2629C23.9835 18.9581 19.5025 23.7189 12.7347 23.7189C11.1956 23.7193 9.67146 23.4165 8.24943 22.8278C6.8274 22.239 5.53532 21.3758 4.44701 20.2875C3.3587 19.1992 2.4955 17.9071 1.90673 16.4851C1.31796 15.063 1.01516 13.5389 1.01563 11.9998C1.01516 10.4607 1.31796 8.9366 1.90673 7.51457C2.4955 6.09254 3.3587 4.80045 4.44701 3.71215C5.53532 2.62384 6.8274 1.76064 8.24943 1.17187C9.67146 0.583095 11.1956 0.280293 12.7347 0.280762C15.899 0.280762 18.543 1.44505 20.5716 3.33552L17.268 6.6391V6.63076C16.0382 5.45933 14.4775 4.85814 12.7347 4.85814C8.86801 4.85814 5.72515 8.12481 5.72515 11.9927C5.72515 15.8593 8.86801 19.1331 12.7347 19.1331C16.243 19.1331 18.6311 17.1272 19.1216 14.3724H12.7347V9.80219H23.7585H23.7573Z"
		/>
	</g>
 </svg>
