<svg
	xmlns="http://www.w3.org/2000/svg"
	fill="currentColor"
	viewBox="0 0 45 42"
	aria-labelledby="Heart"
>
	<g>
		<path
			d="M32.625,2 C28.8,2 24.975,3.8 22.5,6.725 C20.025,3.8 16.2,2 12.375,2 C5.4,2 0,7.4 0,14.375 C0,22.925 7.65,29.9 19.35,40.25 L22.5,43.175 L25.65,40.25 C37.125,29.675 45,22.7 45,14.375 C45,7.4 39.6,2 32.625,2 L32.625,2 Z M22.725,37.1 L22.5,37.1 L22.275,36.875 C11.475,27.2 4.5,20.9 4.5,14.375 C4.5,9.875 7.875,6.5 12.375,6.5 C15.75,6.5 19.125,8.75 20.475,11.9 L24.75,11.9 C25.875,8.75 29.25,6.5 32.625,6.5 C37.125,6.5 40.5,9.875 40.5,14.375 C40.5,20.9 33.525,27.2 22.725,37.1 L22.725,37.1 Z"
		/>
	</g>
 </svg>
