<svg
	xmlns="http://www.w3.org/2000/svg"
	fill="currentColor"
	viewBox="0 0 45 45"
	aria-labelledby="Help"
>
	<g>
		<path
			d="M22.5,0 C10.125,0 0,10.125 0,22.5 C0,34.875 10.125,45 22.5,45 C34.875,45 45,34.875 45,22.5 C45,10.125 34.875,0 22.5,0 L22.5,0 Z M24.75,38.25 L20.25,38.25 L20.25,33.75 L24.75,33.75 L24.75,38.25 L24.75,38.25 Z M29.475,20.925 L27.45,22.95 C25.65,24.525 24.75,25.875 24.75,29.25 L20.25,29.25 L20.25,28.125 C20.25,25.65 21.15,23.4 22.95,21.825 L25.65,18.9 C26.55,18.225 27,17.1 27,15.75 C27,13.275 24.975,11.25 22.5,11.25 C20.025,11.25 18,13.275 18,15.75 L13.5,15.75 C13.5,10.8 17.55,6.75 22.5,6.75 C27.45,6.75 31.5,10.8 31.5,15.75 C31.5,17.775 30.6,19.575 29.475,20.925 L29.475,20.925 Z"
		/>
	</g>
 </svg>
