<svg
	xmlns="http://www.w3.org/2000/svg"
	fill="currentColor"
	viewBox="0 0 45 45"
	aria-labelledby="Information"
>
	<g>
		<path
			d="M20.25,33.75 L24.75,33.75 L24.75,20.25 L20.25,20.25 L20.25,33.75 L20.25,33.75 Z M22.5,0 C10.125,0 0,10.125 0,22.5 C0,34.875 10.125,45 22.5,45 C34.875,45 45,34.875 45,22.5 C45,10.125 34.875,0 22.5,0 L22.5,0 Z M22.5,40.5 C12.6,40.5 4.5,32.4 4.5,22.5 C4.5,12.6 12.6,4.5 22.5,4.5 C32.4,4.5 40.5,12.6 40.5,22.5 C40.5,32.4 32.4,40.5 22.5,40.5 L22.5,40.5 Z M20.25,15.75 L24.75,15.75 L24.75,11.25 L20.25,11.25 L20.25,15.75 L20.25,15.75 Z"
		/>
	</g>
 </svg>
