<svg
	xmlns="http://www.w3.org/2000/svg"
	fill="currentColor"
	viewBox="0 0 45 41"
	aria-labelledby="Like"
>
	<g>
		<path
			d="M0,42.91 L8.18181818,42.91 L8.18181818,18.364 L0,18.364 L0,42.91 L0,42.91 Z M45,20.4095 C45,18.15945 43.1590909,16.3185 40.9090909,16.3185 L28.0227273,16.3185 L30.0681818,6.9092 L30.0681818,6.29555 C30.0681818,5.47735 29.6590909,4.65915 29.25,4.0455 L27,2 L13.5,15.5003 C12.6818182,16.11395 12.2727273,17.1367 12.2727273,18.364 L12.2727273,38.819 C12.2727273,41.06905 14.1136364,42.91 16.3636364,42.91 L34.7727273,42.91 C36.4090909,42.91 37.8409091,41.88725 38.4545455,40.4554 L44.5909091,25.93235 C44.7954545,25.52325 44.7954545,24.9096 44.7954545,24.5005 L44.7954545,20.4095 L45,20.4095 C45,20.61405 45,20.4095 45,20.4095 L45,20.4095 Z"
		/>
	</g>
 </svg>
