<svg
	xmlns="http://www.w3.org/2000/svg"
	fill="currentColor"
	viewBox="0 0 45 38"
	aria-labelledby="ListView"
>
	<g>
		<path
			d="M0,27.8235294 L10.5882353,27.8235294 L10.5882353,17.2352941 L0,17.2352941 L0,27.8235294 L0,27.8235294 Z M0,41.0588235 L10.5882353,41.0588235 L10.5882353,30.4705882 L0,30.4705882 L0,41.0588235 L0,41.0588235 Z M0,14.5882353 L10.5882353,14.5882353 L10.5882353,4 L0,4 L0,14.5882353 L0,14.5882353 Z M13.2352941,27.8235294 L45,27.8235294 L45,17.2352941 L13.2352941,17.2352941 L13.2352941,27.8235294 L13.2352941,27.8235294 Z M13.2352941,41.0588235 L45,41.0588235 L45,30.4705882 L13.2352941,30.4705882 L13.2352941,41.0588235 L13.2352941,41.0588235 Z M13.2352941,4 L13.2352941,14.5882353 L45,14.5882353 L45,4 L13.2352941,4 L13.2352941,4 Z"
		/>
	</g>
 </svg>
