<svg
	xmlns="http://www.w3.org/2000/svg"
	fill="currentColor"
	viewBox="0 0 1000 1000"
	aria-labelledby="Lock"
>
	<g>
		<path
			d="M775.7,377.5H745V260.6C745,120.1,643.3,10,498.9,10C353.9,10,255,122.4,255,260.6v116.9h-30.7c-67.5,0-122.5,55-122.5,122.5v367.5c0,67.5,55,122.5,122.5,122.5h551.3c67.6,0,122.5-55,122.5-122.5V500C898.2,432.5,843.2,377.5,775.7,377.5z M316.3,260.6c0-104.4,71.4-189.4,182.6-189.4c110.1,0,184.9,83.2,184.9,189.4v116.9H316.3V260.6z M836.9,867.5c0,33.7-27.5,61.3-61.3,61.3H224.4c-33.7,0-61.3-27.5-61.3-61.3V500c0-33.7,27.5-61.3,61.3-61.3h551.3c33.7,0,61.3,27.5,61.3,61.3V867.5z M500,561.3c-33.8,0-61.3,27.4-61.3,61.3c0,22.4,12.7,41.2,30.7,51.9v101.2c0,16.9,13.7,30.7,30.7,30.7c16.9,0,30.7-13.7,30.7-30.7V674.4c18-10.6,30.7-29.5,30.7-51.9C561.3,588.7,533.8,561.3,500,561.3z"
		/>
	</g>
 </svg>
