<svg
	viewBox="0 0 155 148"
	fill="currentColor"
	xmlns="http://www.w3.org/2000/svg"
>
<path
		d="M37.0313 148C27.0105 148 18.4029 144.383 11.2084 137.15C4.01397 129.917 0.416748 121.263 0.416748 111.188C0.416748 101.113 4.01397 92.4583 11.2084 85.225C18.4029 77.9917 27.0105 74.375 37.0313 74.375C47.0522 74.375 55.6598 77.9917 62.8542 85.225C70.0487 92.4583 73.6459 101.113 73.6459 111.188C73.6459 121.263 70.0487 129.917 62.8542 137.15C55.6598 144.383 47.0522 148 37.0313 148ZM146.104 140.25L95.422 89.2938C93.6233 90.7146 91.5999 92.1031 89.3516 93.4594C87.1034 94.8156 84.9515 95.9458 82.8959 96.85C82.2535 95.0417 81.547 93.201 80.7761 91.3281C80.0053 89.4552 79.106 87.7438 78.0782 86.1938C85.0157 83.4813 90.8933 78.9927 95.711 72.7281C100.529 66.4636 102.938 59.0042 102.938 50.35C102.938 39.8875 99.2761 30.9427 91.9532 23.5156C84.6303 16.0885 75.7657 12.375 65.3595 12.375C54.8247 12.375 45.8638 16.0885 38.4766 23.5156C31.0895 30.9427 27.3959 39.8875 27.3959 50.35C27.3959 52.5458 27.6207 54.8386 28.0704 57.2281C28.52 59.6177 29.0661 61.6521 29.7084 63.3313C28.0383 63.5896 26.1754 64.0094 24.1199 64.5906C22.0643 65.1719 20.2015 65.85 18.5313 66.625C17.632 64.3 16.9575 61.7167 16.5079 58.875C16.0582 56.0333 15.8334 53.1917 15.8334 50.35C15.8334 36.5292 20.6511 24.8073 30.2865 15.1844C39.922 5.56146 51.6129 0.75 65.3595 0.75C78.9775 0.75 90.5721 5.59375 100.143 15.2813C109.714 24.9688 114.5 36.6583 114.5 50.35C114.5 55.9042 113.537 61.3938 111.609 66.8188C109.682 72.2438 107.049 76.9583 103.708 80.9625L154.583 131.725L146.104 140.25ZM23.7345 129.4L37.0313 116.031L50.1355 129.206L54.5678 124.75L41.2709 111.381L54.9532 97.625L50.5209 93.1688L37.0313 106.731L23.5417 93.1688L19.1095 97.625L32.599 111.188L19.1095 124.75L23.7345 129.4Z"
	/>
</svg>
