<svg
	xmlns="http://www.w3.org/2000/svg"
	fill="currentColor"
	viewBox="0 0 1000 1000"
	aria-labelledby="OnOff"
>
	<g>
		<path
			d="M500,990C244.4,990,37.2,782.8,37.2,527.2c0-176.8,99.2-330.3,245-408.3v63.3c-114.4,72.4-190.6,199.6-190.6,345c0,225.5,182.8,408.3,408.3,408.3c225.5,0,408.3-182.8,408.3-408.3c0-145.4-76.2-272.6-190.6-345v-63.3c145.8,77.9,245,231.5,245,408.3C962.8,782.7,755.5,990,500,990L500,990z M500,472.8c-15.1,0-27.2-12.2-27.2-27.2V37.2c0-15.1,12.2-27.2,27.2-27.2c15.1,0,27.2,12.2,27.2,27.2v408.3C527.2,460.6,515,472.8,500,472.8L500,472.8z"
		/>
	</g>
 </svg>
