<svg
	xmlns="http://www.w3.org/2000/svg"
	fill="currentColor"
	aria-labelledby="PayPal"
	viewBox="0 0 50 32"
>
	<g>
		<rect width="50" height="32" fill="white" />
		<path
			d="M46.4744 0H3.52564C1.5816 0 0 1.57907 0 3.52V28.544C0 30.4849 1.5816 32.064 3.52564 32.064H46.4744C48.4183 32.064 50 30.4849 50 28.544V3.52C50 1.57907 48.4183 0 46.4744 0Z"
			fill="white"
		/>
		<path
			d="M10.7935 10.8702C10.2551 10.5006 9.55251 10.3154 8.68578 10.3154H5.33027C5.06456 10.3154 4.91777 10.4481 4.88988 10.7131L3.52674 19.2558C3.51257 19.3397 3.5336 19.4165 3.58962 19.4862C3.64533 19.5562 3.71539 19.5909 3.7993 19.5909H5.39315C5.6727 19.5909 5.82635 19.4586 5.85456 19.1931L6.232 16.8901C6.24578 16.7785 6.29494 16.6877 6.37885 16.6178C6.4627 16.5481 6.56757 16.5024 6.69341 16.4815C6.81924 16.4608 6.93789 16.4503 7.04994 16.4503C7.16168 16.4503 7.29443 16.4574 7.44847 16.4713C7.60212 16.4852 7.70007 16.492 7.74206 16.492C8.94437 16.492 9.88809 16.1538 10.5733 15.4766C11.2582 14.7997 11.601 13.861 11.601 12.6603C11.601 11.8368 11.3316 11.24 10.7935 10.8699V10.8702ZM9.06334 13.4353C8.99321 13.9239 8.81168 14.2448 8.51809 14.3984C8.22443 14.5522 7.80501 14.6286 7.25982 14.6286L6.5677 14.6496L6.9243 12.4092C6.95212 12.2558 7.04296 12.179 7.19687 12.179H7.59546C8.15443 12.179 8.56014 12.2594 8.8118 12.4197C9.06334 12.5803 9.14725 12.919 9.06334 13.4353Z"
			fill="#003087"
		/>
		<path
			d="M46.2046 10.3154H44.6528C44.4986 10.3154 44.4078 10.3922 44.3801 10.5458L43.0169 19.2562L42.9958 19.298C42.9958 19.3682 43.0239 19.4342 43.0799 19.497C43.1355 19.5597 43.2057 19.5911 43.2896 19.5911H44.6739C44.9391 19.5911 45.086 19.4588 45.1143 19.1934L46.4775 10.6295V10.6087C46.4773 10.4134 46.3862 10.3156 46.2046 10.3156V10.3154Z"
			fill="#009CDE"
		/>
		<path
			d="M27.4559 13.6872C27.4559 13.6175 27.4278 13.5511 27.3721 13.4884C27.3161 13.4256 27.2531 13.394 27.1834 13.394H25.5686C25.4145 13.394 25.2887 13.4642 25.191 13.6034L22.968 16.8699L22.0453 13.7291C21.975 13.5059 21.8214 13.394 21.5839 13.394H20.0108C19.9407 13.394 19.8778 13.4255 19.8222 13.4884C19.7661 13.5511 19.7383 13.6176 19.7383 13.6872C19.7383 13.7153 19.8746 14.1269 20.1472 14.9226C20.4198 15.7183 20.7134 16.5768 21.028 17.4982C21.3426 18.4194 21.5067 18.9082 21.5209 18.9636C20.3743 20.5272 19.8012 21.3648 19.8012 21.4763C19.8012 21.6579 19.8921 21.7485 20.0739 21.7485H21.6887C21.8425 21.7485 21.9682 21.6789 22.0662 21.5392L27.4141 13.8336C27.4419 13.8059 27.4559 13.7572 27.4559 13.6871V13.6872Z"
			fill="#003087"
		/>
		<path
			d="M42.4929 13.3937H40.899C40.7031 13.3937 40.5847 13.624 40.5427 14.0847C40.1788 13.5266 39.5151 13.2471 38.5502 13.2471C37.5435 13.2471 36.6871 13.624 35.9812 14.3778C35.275 15.1317 34.9221 16.0182 34.9221 17.0371C34.9221 17.8608 35.1632 18.5168 35.6455 19.0052C36.1278 19.4941 36.7744 19.7381 37.5856 19.7381C37.991 19.7381 38.4034 19.6542 38.8228 19.4868C39.2423 19.3193 39.5706 19.0961 39.8086 18.8168C39.8086 18.8308 39.7944 18.8935 39.7667 19.0051C39.7385 19.117 39.7247 19.2009 39.7247 19.2563C39.7247 19.48 39.8154 19.5913 39.9974 19.5913H41.4446C41.7099 19.5913 41.8639 19.459 41.9057 19.1935L42.7656 13.7286C42.7794 13.6448 42.7585 13.5682 42.7027 13.4983C42.6466 13.4287 42.5768 13.3937 42.4929 13.3937ZM39.7561 17.5186C39.3996 17.8676 38.9697 18.0421 38.4664 18.0421C38.0608 18.0421 37.7325 17.9306 37.4807 17.7071C37.2289 17.4842 37.1031 17.1771 37.1031 16.7858C37.1031 16.2697 37.2779 15.8332 37.6275 15.4772C37.9766 15.1212 38.4104 14.9433 38.9278 14.9433C39.3189 14.9433 39.644 15.0585 39.9029 15.2887C40.1613 15.519 40.291 15.8367 40.291 16.2415C40.291 16.744 40.1126 17.1698 39.7561 17.5186Z"
			fill="#009CDE"
		/>
		<path
			d="M18.6686 13.3937H17.0748C16.8787 13.3937 16.7602 13.624 16.7182 14.0847C16.3407 13.5266 15.6765 13.2471 14.7258 13.2471C13.7191 13.2471 12.8627 13.624 12.1567 14.3778C11.4505 15.1317 11.0977 16.0182 11.0977 17.0371C11.0977 17.8608 11.3389 18.5168 11.8212 19.0052C12.3036 19.4941 12.9501 19.7381 13.7611 19.7381C14.1524 19.7381 14.5581 19.6542 14.9775 19.4868C15.3969 19.3193 15.7325 19.0961 15.9841 18.8168C15.928 18.9842 15.9002 19.1308 15.9002 19.2563C15.9002 19.48 15.9911 19.5913 16.1728 19.5913H17.6199C17.8853 19.5913 18.0393 19.459 18.0813 19.1935L18.9411 13.7286C18.9549 13.6448 18.9339 13.5682 18.8782 13.4983C18.8223 13.4287 18.7525 13.3937 18.6686 13.3937ZM15.9318 17.529C15.5752 17.8715 15.138 18.0421 14.6211 18.0421C14.2153 18.0421 13.8903 17.9306 13.6458 17.7071C13.401 17.4842 13.2787 17.1771 13.2787 16.7858C13.2787 16.2697 13.4534 15.8332 13.8031 15.4772C14.1524 15.1212 14.5859 14.9433 15.1034 14.9433C15.4946 14.9433 15.8197 15.0585 16.0786 15.2887C16.3371 15.5191 16.4666 15.8368 16.4666 16.2416C16.4666 16.758 16.2883 17.1874 15.9318 17.529Z"
			fill="#003087"
		/>
		<path
			d="M34.618 10.8702C34.0797 10.5006 33.3772 10.3154 32.5104 10.3154H29.1758C28.896 10.3154 28.7421 10.4481 28.7144 10.7131L27.3512 19.2558C27.337 19.3398 27.358 19.4165 27.4141 19.4863C27.4695 19.5562 27.5399 19.5909 27.6238 19.5909H29.3434C29.5111 19.5909 29.6229 19.5003 29.679 19.3188L30.0565 16.8901C30.0704 16.7785 30.1194 16.6877 30.2033 16.6178C30.2872 16.5481 30.392 16.5024 30.5179 16.4815C30.6437 16.4608 30.7623 16.4503 30.8745 16.4503C30.9862 16.4503 31.119 16.4574 31.2728 16.4713C31.4266 16.4852 31.5248 16.492 31.5664 16.492C32.769 16.492 33.7125 16.1538 34.3977 15.4766C35.0828 14.7997 35.4253 13.861 35.4253 12.6603C35.4255 11.8368 35.1562 11.2401 34.618 10.87V10.8702ZM32.4684 14.3147C32.1608 14.524 31.6994 14.6286 31.0843 14.6286L30.4131 14.6496L30.7697 12.4092C30.7974 12.2558 30.8882 12.179 31.0422 12.179H31.4196C31.7272 12.179 31.9718 12.1929 32.1538 12.2208C32.3353 12.2489 32.5104 12.3359 32.6781 12.4825C32.846 12.6291 32.9298 12.842 32.9298 13.1212C32.9298 13.7074 32.7758 14.1052 32.4684 14.3147Z"
			fill="#009CDE"
		/>
	</g>
 </svg>
