<svg
	xmlns="http://www.w3.org/2000/svg"
	fill="currentColor"
	viewBox="0 0 1000 1000"
	aria-labelledby="Clock"
>
	<g>
		<path
			d="M500,10c-154,0-280,126-280,280c0,38.7,31.3,64.5,70,64.5c35.1,0,63-21.3,68.1-54.1c0.8-4.4,0.8-6.2,0.8-9.3c0-77.9,63.2-141.1,141.1-141.1c77.9,0,141.1,63.2,141.1,141.1c0,37.1-13,67.4-37.7,90.6c-14.8,13.9-15.9,15.5-37.2,29.8c-13.4,9.9-26.7,19.2-27.9,20.2c-26.2,21.9-45.3,43.8-62.3,68.4c-20.8,39.4-34.5,67.8-43.6,119c-1.9,16.8-2.4,32-2.4,32c3.3,35.3,33.4,58.6,70,58.6c36.6,0,66.7-23.2,69.7-58.6c0.3-2,2.3-16.7,3.6-22.1c10.7-60.4,46.2-112.2,95.5-144.6c3.4-2.5,16.5-13.4,19.2-14.9c21.9-17.5,14.6-11,25.2-21.3c36.1-32.8,66.7-95,66.7-158C780,136,654,10,500,10z"
		/>
		<path
			d="M500,815c-48.1,0-87.5,39.4-87.5,87.5c0,48.1,39.4,87.5,87.5,87.5c48.1,0,87.5-39.4,87.5-87.5C587.5,854.4,548.1,815,500,815z"
		/>
	</g>
 </svg>
