<svg
	version="1.1"
	xmlns="http://www.w3.org/2000/svg"
	xmlns:xlink="http://www.w3.org/1999/xlink"
	x="0px"
	y="0px"
	viewBox="0 0 1000 1000"
	enable-background="new 0 0 1000 1000"
	xml:space="preserve"
	fill="currentColor"
>
<g><g transform="translate(0.000000,511.000000) scale(0.100000,-0.100000)"><path
				d="M7108.2,4982.9c-15.8-15.8-27.1-49.7-27.1-79.1c0-27.1,101.6-325.3,225.9-661.8c124.2-338.8,225.9-623.4,225.9-634.7c0-11.3-777.1-20.3-1890.6-20.3c-1061.7,0-2023.9-9-2191.1-22.6c-752.2-58.7-1441.1-363.7-2012.6-892.2C907.7,2182,489.9,1418.5,340.8,673.1C275.3,345.5,257.2-9.1,264-887.8l6.8-871.9L932.6-1204l659.6,553.4v318.5c0,533.1,63.2,876.4,221.4,1217.5c307.2,652.8,860.6,1097.8,1517.9,1219.8c167.1,31.6,447.2,36.1,2204.6,31.6l2010.3-6.8l-232.7-632.5c-126.5-347.9-232.6-655.1-232.6-679.9c0-61,51.9-106.2,108.4-94.9c58.7,9,2529.9,2051,2547.9,2105.2c9,24.8-2.3,63.3-27.1,94.9c-70,88.1-2500.5,2087.1-2538.9,2087.1C7151.1,5010,7124,4998.7,7108.2,4982.9z"
			/><path
				d="M9057.5,1407.2l-655.1-553.4L8389,374.9c-15.8-519.5-42.9-670.9-178.5-996.1c-216.8-515-652.8-951-1167.8-1167.8c-329.8-137.8-311.7-137.8-2552.5-131l-2035.2,6.8l234.9,643.8C2839-862.9,2922.6-607.7,2913.6-576c-15.8,65.5-90.4,88.1-153.6,45.2C2705.8-567,451.5-2430.5,331.7-2536.7c-40.7-38.4-72.3-88.1-72.3-119.7c0-40.7,255.2-262,1253.6-1088.7c688.9-569.2,1274-1039.1,1301.1-1043.6c54.2-9.1,110.7,31.6,110.7,81.3c0,24.9-354.6,1018.7-463.1,1296.6c-13.6,36.1,117.5,38.4,2127.8,47.4c2112,6.8,2143.6,6.8,2360.5,56.5c454,103.9,899,300.4,1267.2,562.5c246.2,173.9,623.4,555.7,810.9,819.9c375,526.3,641.5,1255.9,686.7,1877.1c15.8,232.7,24.9,2008.1,9,2008.1C9717.1,1958.3,9419,1709.9,9057.5,1407.2z"
			/></g></g>
</svg>
