<svg viewBox="0 0 20 20" fill="currentColor" xmlns="http://www.w3.org/2000/svg">
<path
		fill-rule="evenodd"
		clip-rule="evenodd"
		d="M1.40049 8C1.40049 4.361 4.36049 1.4 8.00049 1.4C11.6395 1.4 14.5995 4.361 14.5995 8C14.5995 11.639 11.6395 14.6 8.00049 14.6C4.36049 14.6 1.40049 11.639 1.40049 8ZM20.0005 19.01L14.1285 13.138C15.2955 11.748 16.0005 9.957 16.0005 8C16.0005 3.582 12.4185 0 8.00049 0C3.58249 0 0.000488281 3.582 0.000488281 8C0.000488281 12.418 3.58249 16 8.00049 16C9.95749 16 11.7485 15.295 13.1375 14.128L19.0095 20L20.0005 19.01Z"
	/>
</svg>
