<svg
	xmlns="http://www.w3.org/2000/svg"
	fill="currentColor"
	viewBox="0 0 24 24"
	aria-labelledby="Secret"
>
	<g>
		<path
			d="M20.4459 7.951C20.1878 7.72904 19.9284 7.51703 19.6683 7.31396L16.6355 10.3468C16.8203 10.8637 16.9213 11.4202 16.9213 11.9998C16.9213 14.7137 14.7133 16.9217 11.9994 16.9217C11.4198 16.9217 10.8634 16.8206 10.3465 16.6358L8.07031 18.912C9.3995 19.4572 10.7179 19.7342 11.9994 19.7342C13.5302 19.7342 15.1134 19.3406 16.7049 18.5644C17.9547 17.9548 19.2134 17.1083 20.4459 16.0486C22.5298 14.2567 23.8135 12.4849 23.8671 12.4104C24.0435 12.1651 24.0435 11.8345 23.8671 11.5892C23.8134 11.5146 22.5298 9.74284 20.4459 7.951V7.951Z"
		/>
		<path
			d="M12.0007 15.5153C13.9392 15.5153 15.5163 13.9382 15.5163 11.9997C15.5163 11.8311 15.5036 11.6653 15.4805 11.5029L11.5039 15.4796C11.6663 15.5027 11.832 15.5153 12.0007 15.5153V15.5153Z"
		/>
		<path
			d="M23.7941 0.20591C23.5196 -0.0686367 23.0743 -0.0686367 22.7998 0.20591L17.2756 5.73003C17.0855 5.62653 16.8954 5.52796 16.7055 5.43538C15.114 4.65913 13.5308 4.26557 12 4.26557C10.4692 4.26557 8.88603 4.65913 7.29453 5.43533C6.04475 6.04494 4.78607 6.89141 3.55349 7.95116C1.46971 9.743 0.185988 11.5148 0.132363 11.5894C-0.0441211 11.8346 -0.0441211 12.1652 0.132363 12.4105C0.185988 12.4851 1.46966 14.2569 3.55349 16.0487C4.19207 16.5978 4.83768 17.089 5.48539 17.5202L0.206004 22.7997C-0.0685898 23.0742 -0.0685898 23.5194 0.206004 23.794C0.343301 23.9313 0.523207 23.9999 0.70316 23.9999C0.883113 23.9999 1.06307 23.9313 1.20032 23.794L23.7941 1.20022C24.0687 0.925676 24.0687 0.480457 23.7941 0.20591V0.20591ZM7.07816 11.9999C7.07816 9.28602 9.28611 7.07807 12 7.07807C13.104 7.07807 14.1242 7.44341 14.9461 8.05953L13.9374 9.06828C13.3815 8.69966 12.7156 8.48432 12 8.48432C10.0615 8.48432 8.48441 10.0614 8.48441 11.9999C8.48441 12.7154 8.69975 13.3813 9.06838 13.9373L8.05963 14.946C7.4435 14.1241 7.07816 13.1039 7.07816 11.9999V11.9999Z"
		/>
	</g>
 </svg>
