<svg
	xmlns="http://www.w3.org/2000/svg"
	fill="currentColor"
	viewBox="0 0 45 45"
	aria-labelledby="Settings"
>
	<g>
		<path
			d="M38.5632686,24.75 C38.5632686,24.075 38.7882686,23.4 38.7882686,22.5 C38.7882686,21.6 38.7882686,20.925 38.5632686,20.25 L43.2882686,16.425 C43.7382686,15.975 43.7382686,15.525 43.5132686,15.075 L39.0132686,7.2 C38.7882686,6.975 38.3382686,6.75 37.6632686,6.975 L32.0382686,9.225 C30.9132686,8.325 29.5632686,7.65 28.2132686,6.975 L27.3132686,1.125 C27.5382686,0.45 26.8632686,0 26.4132686,0 L17.4132686,0 C16.9632686,0 16.2882686,0.45 16.2882686,0.9 L15.3882686,6.975 C14.0382686,7.425 12.9132686,8.325 11.5632686,9.225 L6.16326859,6.975 C5.48826859,6.75 5.03826859,6.975 4.58826859,7.425 L0.0882685902,15.3 C-0.13673141,15.525 0.0882685902,16.2 0.53826859,16.65 L5.26326859,20.25 C5.26326859,20.925 5.03826859,21.6 5.03826859,22.5 C5.03826859,23.4 5.03826859,24.075 5.26326859,24.75 L0.53826859,28.575 C0.0882685902,29.025 0.0882685902,29.475 0.31326859,29.925 L4.81326859,37.8 C5.03826859,38.025 5.48826859,38.25 6.16326859,38.025 L11.7882686,35.775 C12.9132686,36.675 14.2632686,37.35 15.6132686,38.025 L16.5132686,43.875 C16.5132686,44.325 16.9632686,44.775 17.6382686,44.775 L26.6382686,44.775 C27.0882686,44.775 27.7632686,44.325 27.7632686,43.875 L28.6632686,38.025 C30.0132686,37.35 31.3632686,36.675 32.4882686,35.775 L38.1132686,38.025 C38.5632686,38.25 39.2382686,38.025 39.4632686,37.575 L43.9632686,29.7 C44.1882686,29.25 44.1882686,28.575 43.7382686,28.35 L38.5632686,24.75 L38.5632686,24.75 Z M21.9132686,30.375 C17.6382686,30.375 14.0382686,26.775 14.0382686,22.5 C14.0382686,18.225 17.6382686,14.625 21.9132686,14.625 C26.1882686,14.625 29.7882686,18.225 29.7882686,22.5 C29.7882686,26.775 26.1882686,30.375 21.9132686,30.375 L21.9132686,30.375 Z"
		/>
	</g>
 </svg>
