<svg
	version="1.1"
	xmlns="http://www.w3.org/2000/svg"
	xmlns:xlink="http://www.w3.org/1999/xlink"
	x="0px"
	y="0px"
	viewBox="0 0 1000 1000"
	enable-background="new 0 0 1000 1000"
	xml:space="preserve"
	fill="currentColor"
>
<g><g transform="translate(0.000000,511.000000) scale(0.100000,-0.100000)"><path
				d="M4905.9,4743.1c-23.5-19.6-329.4-690.2-709.8-1554.8c-368.6-835.3-670.6-1521.5-672.5-1521.5c-2-2-752.9-78.4-1670.5-172.5L186.5,1325.6l-45.1-49c-51-60.8-54.9-121.6-11.8-182.3c15.7-23.5,574.5-529.4,1239.1-1123.5c664.7-594.1,1217.6-1090.2,1225.4-1101.9c9.8-13.7-135.3-721.5-335.3-1648.9c-276.5-1268.6-349-1637.2-335.3-1674.4c25.5-64.7,74.5-100,139.2-102c35.3,0,537.2,282.3,1470.5,825.4c780.3,454.9,1433.3,831.3,1450.9,835.3c17.7,5.9,627.4-337.2,1466.6-825.5c947-550.9,1452.9-835.2,1488.2-835.2c68.6,0,145.1,80.4,145.1,151c0,31.4-156.9,774.5-347.1,1652.9c-200,917.6-341.2,1607.8-331.3,1621.5c7.8,11.8,560.8,507.8,1225.4,1101.9c664.7,594.1,1223.5,1099.9,1239.2,1123.5c43.1,60.8,39.2,121.6-11.8,182.3l-45.1,49l-1666.6,168.6c-915.7,94.1-1668.5,170.6-1670.5,172.5c-2,2-303.9,686.2-672.5,1521.5c-378.4,860.7-686.2,1535.2-709.8,1554.8c-21.6,17.7-64.7,33.3-94.1,33.3C4970.6,4776.4,4927.4,4760.8,4905.9,4743.1z M5617.6,2831.4c333.3-758.8,625.5-1396,647-1419.5c51-51-52.9-39.2,1617.6-203.9c770.5-76.5,1417.6-147.1,1439.2-154.9c29.4-9.8-182.4-207.8-1103.9-1031.3c-682.3-611.7-1145-1037.2-1152.9-1064.6c-5.9-25.5,131.4-696,313.7-1539.1c178.4-821.5,321.6-1496,319.6-1498c-2-2-601.9,345.1-1333.3,772.5c-1047,609.8-1341.1,772.5-1382.3,766.6c-27.5-5.9-641.1-354.9-1364.7-776.4c-721.5-421.6-1315.6-764.7-1315.6-762.7c-2,2,141.2,676.4,319.6,1498c180.4,829.4,319.6,1515.6,311.8,1539.1c-5.9,27.4-476.5,460.8-1150.9,1064.6C855.1,849.2,649.2,1041.3,678.6,1053.1c21.6,7.8,668.6,78.4,1439.1,154.9c1670.5,164.7,1566.6,152.9,1615.6,203.9c23.5,23.5,313.7,660.8,649,1419.5c333.3,756.8,611.7,1376.4,617.6,1376.4C5005.9,4207.8,5284.3,3588.3,5617.6,2831.4z"
			/></g></g>
</svg>
