<svg
	version="1.1"
	xmlns="http://www.w3.org/2000/svg"
	xmlns:xlink="http://www.w3.org/1999/xlink"
	x="0px"
	y="0px"
	viewBox="0 0 1000 1000"
	enable-background="new 0 0 1000 1000"
	xml:space="preserve"
	fill="currentColor"
>
<g><path d="M48.2,10L48.2,10L48.2,10z" /><path
			d="M315.4,277.2c0-21.1-7.5-39.1-22.4-54s-32.9-22.4-54-22.4c-21.1,0-39.1,7.5-54,22.4c-14.9,14.9-22.4,32.9-22.4,54c0,21.1,7.5,39.1,22.4,54c14.9,14.9,32.9,22.4,54,22.4c21.1,0,39.1-7.5,54-22.4C307.9,316.3,315.4,298.3,315.4,277.2z M951.8,620.8c0,21.1-7.4,39-22.1,53.7L636.9,967.9c-15.5,14.7-33.6,22.1-54.3,22.1c-21.1,0-39-7.4-53.7-22.1L102.4,540.9c-15.1-14.7-27.9-34.8-38.5-60.2c-10.5-25.5-15.8-48.7-15.8-69.8V162.7c0-20.7,7.6-38.6,22.7-53.7c15.1-15.1,33-22.7,53.7-22.7h248.1c21.1,0,44.3,5.3,69.8,15.8c25.5,10.5,45.7,23.4,60.8,38.5l426.5,425.9C944.5,582,951.8,600.1,951.8,620.8L951.8,620.8z"
		/></g>
</svg>
