<svg
	xmlns="http://www.w3.org/2000/svg"
	fill="currentColor"
	aria-labelledby="TilesView"
	viewBox="0 0 45 35"
>
	<g>
		<path
			d="M0,20.8823529 L13.2352941,20.8823529 L13.2352941,5 L0,5 L0,20.8823529 L0,20.8823529 Z M0,39.4117647 L13.2352941,39.4117647 L13.2352941,23.5294118 L0,23.5294118 L0,39.4117647 L0,39.4117647 Z M15.8823529,39.4117647 L29.1176471,39.4117647 L29.1176471,23.5294118 L15.8823529,23.5294118 L15.8823529,39.4117647 L15.8823529,39.4117647 Z M31.7647059,39.4117647 L45,39.4117647 L45,23.5294118 L31.7647059,23.5294118 L31.7647059,39.4117647 L31.7647059,39.4117647 Z M15.8823529,20.8823529 L29.1176471,20.8823529 L29.1176471,5 L15.8823529,5 L15.8823529,20.8823529 L15.8823529,20.8823529 Z M31.7647059,5 L31.7647059,20.8823529 L45,20.8823529 L45,5 L31.7647059,5 L31.7647059,5 Z"
		/>
	</g>
 </svg>
