<svg
	version="1.1"
	xmlns="http://www.w3.org/2000/svg"
	xmlns:xlink="http://www.w3.org/1999/xlink"
	x="0px"
	y="0px"
	viewBox="0 0 1000 1000"
	enable-background="new 0 0 1000 1000"
	xml:space="preserve"
	fill="currentColor"
>
<g><g><g><g><path
						d="M500,10h-44.2v233h88.4V100.8c202.5,22,357.4,192.6,357.4,399.2c0,221.5-180.2,401.6-401.6,401.6C278.6,901.6,98.4,721.5,98.4,500c0-90.6,29.5-176.2,85.1-247.3l15.6-19.8l-69.6-54.5L114,198.2C46,285.1,10,389.4,10,500c0,270.2,219.8,490,490,490c270.2,0,490-219.8,490-490C990,229.8,770.2,10,500,10z"
					/></g><g><path
						d="M429.6,575.1c16,19.2,38.5,31,63.3,33.2c2.9,0.3,5.7,0.4,8.5,0.4c47.8,0,88.7-37.4,93-85c2.2-24.8-5.3-49.1-21.3-68.3c-16-19.2-38.5-31-63.3-33.3c-8.2-0.7-16.5-0.3-25.3,1.4L214.6,194.9l198.3,291.3c-2.5,7.3-4,14-4.6,20.6C406,531.6,413.5,555.9,429.6,575.1z"
					/></g></g></g><g /><g /><g /><g /><g /><g /><g /><g /><g /><g /><g /><g
		/><g /><g /><g /></g>
</svg>
