<svg
	version="1.1"
	xmlns="http://www.w3.org/2000/svg"
	xmlns:xlink="http://www.w3.org/1999/xlink"
	viewBox="0 0 1000 1000"
	fill="currentColor"
>
<g><path d="M370.4,197.7H629v51.4H370.4V197.7z" /><path
			d="M729.1,504.9l-42.8-29.2L493,759.4L341.9,643.7L310.3,685l153.4,117.4l41.4,31.2L729.1,504.9z"
		/><path
			d="M335,282.7c0,10.1-9.5,18.4-21.2,18.4h-25c-11.7,0-21.2-8.2-21.2-18.4V78.9c0-10.1,9.5-18.4,21.2-18.4h25c11.7,0,21.2,8.2,21.2,18.4V282.7z"
		/><path
			d="M731.3,282.7c0,10.1-9.5,18.4-21.2,18.4h-25c-11.7,0-21.2-8.2-21.2-18.4V78.9c0-10.1,9.5-18.4,21.2-18.4h25c11.7,0,21.2,8.2,21.2,18.4V282.7z"
		/><path
			d="M828.2,199.2l-62.1-0.2v53.3l61.9,0.2c29.3,0.1,56.9,11.8,77.6,33c20.7,21.2,32.1,49.2,32,78.8l0,6.3h-874l0-9.1c0.2-61.3,49.5-111.1,110-111.1l58.1,0.2v-53.3l-57.5-0.2c-89.5-0.3-162.6,73.4-162.9,164.2L10,772c-0.3,90.9,72.3,165,161.8,165.3l654,2.1c89.5,0.3,162.6-73.4,162.9-164.2l1.3-410.6C990.3,273.7,917.7,199.5,828.2,199.2z M826.3,886.2L172,884c-29.3-0.1-56.9-11.8-77.6-33c-20.7-21.2-32.1-49.2-32-78.8l1.1-347.1h874l-1.1,350C936.1,836.3,886.8,886.2,826.3,886.2z"
		/></g>
</svg>
