<svg viewBox="0 0 21 8" fill="currentColor" xmlns="http://www.w3.org/2000/svg">
<path
		d="M10.5 6.10352e-05C7.85 6.10352e-05 5.45 0.990061 3.6 2.60006L1.71 0.710061C1.08 0.0800611 0 0.520061 0 1.41006V7.00006C0 7.55006 0.45 8.00006 1 8.00006H6.59C7.48 8.00006 7.93 6.92006 7.3 6.29006L5.39 4.38006C6.78 3.22006 8.55 2.50006 10.51 2.50006C13.67 2.50006 16.4 4.34006 17.7 7.00006C17.97 7.56006 18.61 7.84006 19.2 7.64006C19.91 7.41006 20.27 6.60006 19.95 5.92006C18.23 2.42006 14.65 6.10352e-05 10.5 6.10352e-05Z"
	/>
</svg>
