<svg
	xmlns="http://www.w3.org/2000/svg"
	fill="currentColor"
	viewBox="0 0 1000 1000"
	aria-labelledby="Users"
>
	<g>
		<g transform="matrix(1 0 0 -1 0 1638)">
			<path
				d="M916.3,770.5H377.5c-20.4,0-37.8,7.2-52.2,21.5s-21.5,31.7-21.5,52.2c0,1.3,2,13.6,6,37.1c4,23.4,17.1,48.9,39.5,76.3c12.8,16,27.9,30.1,45.5,42.6s37.2,23.1,58.9,32.1c13.1,5.4,27,10.1,41.6,14.1c14.7,4,30.1,7.3,46.2,10s33,4.8,50.7,6.2s36,2.2,54.8,2.2c19.1,0,37.5-0.7,55-2.2s34.4-3.5,50.5-6.2s31.5-6.1,46.2-10s28.6-8.7,41.6-14.1c22-8.9,41.7-19.6,59.1-32.1s32.5-26.6,45.2-42.6c22.7-27.4,35.9-52.9,39.7-76.3s5.7-35.8,5.7-37.1c0-20.4-7.2-37.8-21.5-52.2S936.7,770.5,916.3,770.5L916.3,770.5z M353.1,844.2c0-6.7,2.4-12.4,7.2-17.2s10.5-7.2,17.2-7.2h538.8c7,0,12.8,2.4,17.5,7.2s7.1,10.5,7.4,17.2c0,0.6-1.8,9.8-5.3,27.5s-13.9,36.8-31.1,57.2c-12.1,14.4-26.6,26.9-43.5,37.6s-36.2,19.7-57.9,27s-45.6,12.8-71.8,16.5s-54.4,5.5-84.7,5.5s-58.5-1.8-84.7-5.5s-50-9.2-71.5-16.5s-40.8-16.3-57.9-27s-31.5-23.2-43.3-37.6c-17.5-20.4-28-39.5-31.3-57.2S353.1,844.8,353.1,844.2L353.1,844.2z M646.9,1113.6c-26.8,0-52.2,5.2-76.1,15.6s-44.7,24.4-62.4,42.1s-31.7,38.4-41.9,62.2s-15.3,49.2-15.3,76.3c0,26.8,5.1,52.2,15.3,76.1s24.2,44.7,41.9,62.4s38.5,31.7,62.4,41.9s49.3,15.3,76.1,15.3c27.1,0,52.6-5.1,76.3-15.3s44.5-24.2,62.2-41.9s31.7-38.5,42.1-62.4s15.6-49.3,15.6-76.1c0-27.1-5.2-52.6-15.6-76.3s-24.4-44.5-42.1-62.2s-38.4-31.7-62.2-42.1S674,1113.6,646.9,1113.6L646.9,1113.6z M646.9,1456.7c-20.1,0-39.1-3.8-56.9-11.5s-33.5-18.2-46.9-31.6s-23.9-29-31.6-46.9s-11.5-36.8-11.5-56.9c0-20.4,3.8-39.6,11.5-57.4s18.2-33.4,31.6-46.7s29-23.7,46.9-31.3s36.8-11.5,56.9-11.5c20.4,0,39.6,3.8,57.4,11.5s33.4,18.1,46.7,31.3s23.7,28.8,31.3,46.7s11.5,37,11.5,57.4c0,20.1-3.8,39.1-11.5,56.9s-18.1,33.5-31.3,46.9s-28.8,23.9-46.7,31.6S667.3,1456.7,646.9,1456.7L646.9,1456.7z M230.6,770.5H83.7c-20.4,0-37.8,7.2-52.2,21.5S10,823.8,10,844.2c0,1,1.4,10.5,4.3,28.7s12.3,38,28.2,59.3c9.3,12.4,20.2,23.5,32.8,33.3s26.7,18.1,42.3,25.1c18.5,8.3,39.3,14.5,62.4,18.7c23.1,4.1,48.1,6.2,74.9,6.2h13.2c0,0,4.2-0.2,12.7-0.5c6.7-0.3,12.3-3,16.7-8.1s6.5-11,6.2-17.7s-3-12.3-7.9-16.7s-10.9-6.5-17.9-6.2c-3.5,0-7.3,0.1-11.2,0.2s-7.9,0.2-11.7,0.2c-47.9,0-84.9-6.1-111.3-18.4S98,922.4,85.4,907.6s-20.1-28.8-22.5-41.9s-3.7-20.3-4.1-21.5c0.3-6.7,2.8-12.4,7.4-17.2s10.4-7.2,17.5-7.2h146.9c6.7,0,12.4-2.4,17.2-7.2s7.2-10.5,7.2-17.2c0-7-2.4-12.9-7.2-17.7S237.3,770.5,230.6,770.5L230.6,770.5z M255,1064.8c-20.4,0-39.5,3.8-57.2,11.5s-33.3,18.2-46.7,31.6s-23.9,29-31.6,46.7s-11.5,36.8-11.5,57.2s3.8,39.5,11.5,57.2s18.2,33.3,31.6,46.7s29,23.9,46.7,31.6s36.8,11.5,57.2,11.5s39.5-3.8,57.2-11.5s33.3-18.2,46.7-31.6s23.9-29,31.6-46.7s11.5-36.8,11.5-57.2s-3.8-39.5-11.5-57.2s-18.2-33.3-31.6-46.7s-29-23.9-46.7-31.6S275.4,1064.8,255,1064.8L255,1064.8z M255,1309.8c-13.4,0-26.1-2.6-38-7.7s-22.4-12.1-31.3-21.1s-16-19.4-21.1-31.3s-7.7-24.6-7.7-38s2.6-26.1,7.7-38s12.1-22.4,21.1-31.3c8.9-8.9,19.4-15.9,31.3-21.1s24.6-7.7,38-7.7s26.1,2.6,38,7.7s22.4,12.1,31.3,21.1c8.9,8.9,16,19.4,21.1,31.3s7.7,24.6,7.7,38s-2.6,26.1-7.7,38s-12.1,22.4-21.1,31.3s-19.4,16-31.3,21.1S268.4,1309.8,255,1309.8L255,1309.8z"
			/>
		</g>
	</g>
 </svg>
