<svg viewBox="0 0 14 14" fill="currentColor" xmlns="http://www.w3.org/2000/svg">
<path
		d="M6.33325 9.00001H7.66659V10.3333H6.33325V9.00001ZM6.33325 3.66668H7.66659V7.66668H6.33325V3.66668ZM6.99325 0.333344C3.31325 0.333344 0.333252 3.32001 0.333252 7.00001C0.333252 10.68 3.31325 13.6667 6.99325 13.6667C10.6799 13.6667 13.6666 10.68 13.6666 7.00001C13.6666 3.32001 10.6799 0.333344 6.99325 0.333344ZM6.99992 12.3333C4.05325 12.3333 1.66659 9.94668 1.66659 7.00001C1.66659 4.05334 4.05325 1.66668 6.99992 1.66668C9.94659 1.66668 12.3333 4.05334 12.3333 7.00001C12.3333 9.94668 9.94659 12.3333 6.99992 12.3333Z"
	/>
</svg>
